<?xml version="1.0" encoding="UTF-8" standalone="no"?>
<!-- Created with Inkscape (http://www.inkscape.org/) -->

<svg
   xmlns:dc="http://purl.org/dc/elements/1.1/"
   xmlns:cc="http://creativecommons.org/ns#"
   xmlns:rdf="http://www.w3.org/1999/02/22-rdf-syntax-ns#"
   xmlns:svg="http://www.w3.org/2000/svg"
   xmlns="http://www.w3.org/2000/svg"
   xmlns:xlink="http://www.w3.org/1999/xlink"
   version="1.1"
   width="16025"
   height="2003"
   id="svg3009">
  <metadata
     id="metadata3015">
    <rdf:RDF>
      <cc:Work
         rdf:about="">
        <dc:format>image/svg+xml</dc:format>
        <dc:type
           rdf:resource="http://purl.org/dc/dcmitype/StillImage" />
        <dc:title></dc:title>
      </cc:Work>
    </rdf:RDF>
  </metadata>
  <defs
     id="defs3013" />
  <image
     xlink:href="file:///C:/Users/Jan/Desktop/Programming/Oplossingen/Sonic_the_Hedgehog/CODE/Sonic_the_Hedgehog/Resources/Map/map.tif"
     x="0"
     y="0"
     width="16025"
     height="2003"
     id="image3017" />
  <path
     d="m 13053.872,1933.9682 -32.627,0.032 -1.245,-1.5 -1.245,-1.5 -12.755,0 -12.755,0 -1.245,-1.5 -1.245,-1.5 -9.755,0 -9.755,0 -1.245,-1.5 -1.245,-1.5 -11.255,0 -11.255,0 -1.245,-1.5 -1.245,-1.5 -283.127,0.032 -283.128,0.032 -1.941,1.4682 -1.941,1.4682 -17.187,0 -17.186,0 -1.245,1.5 -1.245,1.5 -34.755,0 -34.755,0 -1.245,-1.5 -1.245,-1.5 -9.755,0 -9.755,0 -1.245,-1.5 -1.245,-1.5 -37.755,0 -37.755,0 -1.245,1.5 -1.245,1.5 -5.255,0 -5.255,0 -1.245,1.5 -1.245,1.5 -43.755,0 -43.755,0 -1.245,-1.5 -1.245,-1.5 -8.255,0 -8.255,0 -1.245,-1.5 -1.245,-1.5 -19.27,0 -19.271,0 -0.607,-1.5818 c -0.334,-0.87 -0.607,-2.8399 -0.607,-4.3775 l 0,-2.7958 -1.5,-1.2449 -1.5,-1.2449 0,-44.3185 0,-44.3186 -0.978,-0.6044 -0.978,-0.6044 -38.731,0.068 -38.732,0.068 -2.105,1.9776 -2.105,1.9776 -10.435,0.032 -10.436,0.032 -1.941,1.4682 -1.941,1.4682 -10.559,0.032 -10.559,0.032 -1.941,1.4682 -1.941,1.4682 -9.059,0.032 -9.059,0.032 -1.941,1.4682 -1.941,1.4682 -20.187,0 -20.186,0 -1.245,-1.5 -1.245,-1.5 -30.255,0 -30.255,0 -1.245,-1.5 -1.245,-1.5 -9.755,0 -9.755,0 -1.245,-1.5 -1.245,-1.5 -11.342,0 -11.343,0 -1.07,-2 -1.07,-2 -87.93,0 -87.93,0 -1.07,2 -1.07,2 -9.843,0 -9.842,0 -1.245,1.5 -1.245,1.5 -19.255,0 -19.255,0 -1.245,-1.5 -1.245,-1.5 -15.637,0 -15.637,0 -1.249,-2 -1.249,-2 -5.991,0 -5.992,0 -0.118,1.75 c -0.07,0.9625 -0.06,2.2525 0.01,2.8666 0.07,0.6141 -0.55,1.6817 -1.382,2.3724 l -1.513,1.2559 -0.03,4.1275 -0.03,4.1276 -1.468,1.9411 -1.468,1.9412 0,1.774 0,1.7741 -3,3.4168 -3,3.4168 0,2.9956 0,2.9955 -1.5,1.2449 -1.5,1.2449 0,1.7571 0,1.7571 -4.546,3.725 -4.546,3.725 -0.559,2.795 -0.559,2.7949 -3.645,3.5069 -3.645,3.5069 -1.956,0.3488 -1.956,0.3489 -0.571,2.4948 -0.572,2.4947 -4.812,2.5 -4.812,2.5 -1.994,2.75 -1.994,2.75 -3.294,0 -3.294,0 -1.245,1.5 -1.245,1.5 -1.627,0.032 c -0.896,0.017 -2.502,0.6925 -3.569,1.5 l -1.941,1.4682 -1.774,0 -1.774,0 -3.417,3 -3.417,3 -3.996,0 -3.995,0 -1.21,1.458 -1.21,1.4579 -7.102,0.2921 -7.102,0.292 -0.839,3.25 -0.839,3.25 -44.349,0 -44.349,0 -1.245,1.5 -1.245,1.5 -36.318,0 -36.319,0 -0.656,-1.0617 c -0.361,-0.5839 -1.625,-1.4935 -2.809,-2.0214 -1.184,-0.5279 -3.953,-2.2851 -6.153,-3.9051 l -4,-2.9454 -1.717,-0.033 -1.718,-0.033 -11.565,-6 c -6.361,-3.3 -12.083,-6 -12.717,-6 -0.633,0 -2.981,-0.9295 -5.217,-2.0655 -2.236,-1.1361 -5.232,-2.8236 -6.656,-3.75 -1.425,-0.9265 -4.454,-2.922 -6.731,-4.4345 -2.276,-1.5125 -4.786,-2.75 -5.577,-2.75 -0.791,0 -3.636,-1.1042 -6.323,-2.4538 -2.687,-1.3495 -5.719,-3.3745 -6.737,-4.5 l -1.852,-2.0462 -3.31,0 -3.31,0 -3.417,-3 -3.417,-3 -3.067,0 -3.067,0 -2.571,-3.3711 -2.572,-3.371 -4.078,-0.547 -4.078,-0.547 -2.255,-2.1191 -2.256,-2.1192 -9.866,-4.9628 c -5.426,-2.7295 -10.379,-4.9628 -11.005,-4.9628 -0.627,0 -3.79,-1.3994 -7.03,-3.1098 -3.24,-1.7105 -6.791,-3.9087 -7.891,-4.8851 -1.1,-0.9764 -3.087,-2.106 -4.416,-2.5103 -1.329,-0.4043 -7.117,-3.156 -12.862,-6.115 l -10.445,-5.3798 -3.266,0 -3.266,0 -1.245,-1.5 -1.245,-1.5 -4.755,0 -4.755,0 -1.245,-1.5 -1.245,-1.5 -6.637,0 -6.637,0 -1.249,-2 -1.249,-2 -133.8,0 -133.801,0 -1.941,-1.4682 -1.941,-1.4682 -8,-0.064 -8,-0.064 -1.941,-1.4682 -1.941,-1.4682 -3.559,-0.035 -3.559,-0.035 -2.5,-1.4291 -2.5,-1.4291 -3.628,-0.035 -3.627,-0.035 -1.245,-1.5 -1.245,-1.5 -3.796,0 -3.797,0 -3.081,-1.5 c -1.695,-0.825 -4.467,-2.175 -6.162,-3 -1.695,-0.825 -3.665,-1.5 -4.378,-1.5 -0.713,0 -1.856,-0.675 -2.541,-1.5 l -1.245,-1.5 -1.708,0 -1.709,0 -1.39,-2.597 c -0.764,-1.4283 -2.675,-3.6783 -4.246,-5 l -2.855,-2.403 -2.301,0 -2.301,0 -1.245,-1.5 -1.245,-1.5 -1.587,0 -1.587,0 -11.79,-11.9656 -11.791,-11.9657 0,-1.3314 0,-1.3314 -3.956,-3.8625 -3.955,-3.8626 -0.624,-2.8391 c -0.343,-1.5615 -1.975,-5.5438 -3.627,-8.8494 l -3.003,-6.0103 -1.918,-1.0262 -1.917,-1.0262 0,-1.8423 0,-1.8424 -1.5,-1.2449 -1.5,-1.2449 0,-3.7551 0,-3.7551 -1.5,-1.2449 -1.5,-1.2449 0,-3.2551 0,-3.2551 -1.5,-1.2449 -1.5,-1.2449 0,-5.1864 0,-5.1864 -1.468,-1.9412 -1.468,-1.9411 -0.03,-4.1276 -0.03,-4.1275 -1.5,-1.2449 -1.5,-1.2449 0,-24.1818 0,-24.1817 3,-4.7305 3,-4.7306 0,-12.3428 0,-12.3428 1.5,-1.2449 1.5,-1.2449 0,-4.7551 0,-4.7551 1.5,-1.2449 1.5,-1.2449 0,-1.4324 c 0,-0.7878 0.893,-3.3929 1.985,-5.7891 1.091,-2.3962 2.414,-4.509 2.94,-4.6952 0.525,-0.1861 2.09,-1.9134 3.476,-3.8384 1.387,-1.925 3.722,-5.7367 5.189,-8.4704 l 2.667,-4.9704 5.872,-6.1145 5.871,-6.1146 0,-1.665 0,-1.6651 0.82,0 c 0.451,0 2.605,-1.5278 4.786,-3.395 l 3.967,-3.3951 2.632,-5.3767 2.633,-5.3767 2.081,-1.8833 2.081,-1.8832 0,-1.6579 0,-1.6579 3,-2.8742 3,-2.8742 0,-1.6669 0,-1.6669 2.5,-2.6975 2.5,-2.6975 0,-11.2742 0,-11.2742 -2.5,-2.3486 c -1.375,-1.2917 -2.5,-2.8901 -2.5,-3.5519 0,-0.6618 -0.675,-1.7634 -1.5,-2.4481 l -1.5,-1.2449 0,-1.4955 0,-1.4956 -3,-3.4168 -3,-3.4168 0,-1.9866 0,-1.9867 -5.455,-5.5424 c -3,-3.0483 -7.07,-6.6387 -9.044,-7.9786 -1.974,-1.3398 -4.222,-2.4361 -4.995,-2.4361 l -1.404,0 -2.649,-3.4731 -2.649,-3.4731 -3.317,-0.6223 -3.318,-0.6223 -2.259,-2.4046 -2.259,-2.4046 -3.634,0 -3.635,0 -1.941,-1.4682 -1.941,-1.4682 -4,-0.064 -4,-0.064 -1.941,-1.4682 -1.941,-1.4682 -92.687,0 -92.686,0 -1.245,1.5 -1.245,1.5 -8.255,0 -8.255,0 -1.245,1.5 -1.245,1.5 -13.913,0 -13.912,0 -2.495,1.6347 -2.495,1.6347 -9.448,-0.4942 -9.448,-0.4942 -1.998,1.3997 -1.999,1.3996 -26.943,0.038 -26.943,0.038 -2.33,-1.308 -2.331,-1.308 -13.54,0.335 -13.54,0.335 -1.333,-1.6054 -1.332,-1.6053 -14.255,0 -14.255,0 -1.245,-1.5 -1.245,-1.5 -9.755,0 -9.755,0 -1.245,-1.5 -1.245,-1.5 -122.255,0 -122.2551,0 -1.2449,-1.5 -1.2449,-1.5 -9.7551,0 -9.7551,0 -1.2449,-1.5 -1.2449,-1.5 -5.2625,0 -5.2626,0 -1.638,-2.5 -1.6381,-2.5 -2.8545,0 -2.8545,0 -1.2449,-1.5 -1.2449,-1.5 -3.6275,-0.017 -3.6276,-0.017 -8,-3.9665 c -4.4,-2.1816 -8.3414,-3.974 -8.7587,-3.9833 -0.4172,-0.01 -2.6222,-1.3667 -4.9,-3.0167 -2.2778,-1.65 -4.7146,-3 -5.4153,-3 l -1.2739,0 -2.326,-3.0658 c -1.2794,-1.6862 -4.0686,-5.0587 -6.1982,-7.4944 l -3.8722,-4.4285 -3.714,-1.0001 -3.714,-1 -6.1638,-6.4191 -6.1639,-6.419 0,-2.1294 0,-2.1294 -4.5,-4.8108 c -2.475,-2.646 -4.5,-5.3012 -4.5,-5.9005 0,-0.5993 -0.7875,-1.6776 -1.75,-2.3963 -0.9625,-0.7187 -2.5375,-2.7261 -3.5,-4.461 -0.9625,-1.7349 -1.75,-3.7303 -1.75,-4.4343 0,-0.704 -0.9389,-3.2195 -2.0865,-5.5901 -1.1476,-2.3706 -2.4976,-4.5643 -3,-4.8748 l -0.9135,-0.5645 -0.032,-3.191 -0.032,-3.191 -1.4682,-1.9411 -1.4682,-1.9412 0,-3.1177 0,-3.1177 -1.4682,-1.9412 -1.4682,-1.9411 -0.032,-5.1357 -0.032,-5.1357 -1.4938,-2.8643 -1.4939,-2.8643 -0.01,-36.5589 -0.01,-36.5588 1.4682,-1.9412 1.4682,-1.9411 0.067,-5 0.067,-5 1.4291,-2.5 1.4291,-2.5 0.035,-4.2091 0.035,-4.2091 4.4397,-8.6281 c 2.4418,-4.7455 4.7421,-10.0051 5.1118,-11.6881 l 0.6721,-3.06 8.737,-8.6028 8.7369,-8.6028 2.2555,-4.781 2.2555,-4.7811 4.0594,-3.2189 c 2.2327,-1.7705 5.5608,-4.6365 7.3958,-6.369 l 3.3363,-3.15 0,-3.8971 0,-3.897 4.0171,-3.9226 4.0172,-3.9227 1.9828,-4.096 1.9829,-4.096 0,-11.1504 0,-11.1503 -1.6715,-3.784 c -0.9194,-2.0811 -3.2356,-7.0718 -5.1471,-11.0904 l -3.4756,-7.3066 -11.0305,-10.9434 -11.0305,-10.9435 -1.7,0 -1.6999,0 -1.2449,-1.5 c -0.6847,-0.825 -1.8283,-1.5 -2.5414,-1.5 -0.7131,0 -2.5705,-0.6359 -4.1276,-1.4132 -1.557,-0.7773 -4.6234,-2.2398 -6.8142,-3.25 l -3.9831,-1.8368 -1.8394,-2.25 -1.8395,-2.25 -6.1774,-0.035 -6.1774,-0.036 -2.5,-1.4291 -2.5,-1.4291 -88.5589,-0.036 -88.5588,-0.035 -1.9412,1.4682 -1.9411,1.4682 -10.7977,0.032 -10.7978,0.032 -2.3169,2.5 -2.3169,2.5 -7.4442,0 -7.4442,0 -1.9412,1.4682 -1.9411,1.4682 -59.6276,0.032 -59.6275,0.032 -1.2449,-1.5 -1.2449,-1.5 -13.4832,0 -13.4832,0 -2.9711,-2.5 -2.9711,-2.5 -10.6732,-0.035 -10.6733,-0.036 -2.5,-1.4291 -2.5,-1.4291 -89.6292,-0.036 -89.6291,-0.035 -5.5215,2.5278 c -3.0368,1.3903 -6.0713,3.1903 -6.7433,4 l -1.2218,1.4722 -5.1275,0.032 -5.1276,0.032 -1.9411,1.4682 -1.9412,1.4682 -2.6609,0 -2.6609,0 -11.2066,5.5 c -6.1636,3.025 -11.6666,5.5 -12.2289,5.5 -0.5624,0 -4.2485,1.6156 -8.1914,3.5903 l -7.169,3.5904 -2.8228,3.4096 -2.8228,3.4097 -3.8048,0 -3.8047,0 -1.2996,1.5659 c -0.7148,0.8613 -2.5476,2.2113 -4.0728,3 -1.5253,0.7888 -3.6171,1.4341 -4.6485,1.4341 l -1.8754,0 -2.3486,2.5 -2.3486,2.5 -2.3578,0 c -1.2968,0 -3.8059,0.6053 -5.5757,1.3451 -1.7699,0.7398 -3.8355,2.0898 -4.5903,3 l -1.3725,1.6549 -2.3775,0 -2.3776,0 -1.75,1.8497 c -0.9625,1.0174 -2.5331,2.8174 -3.4902,4 l -1.7402,2.1503 -3.8355,0 -3.8355,0 -2.3664,2.5189 -2.3663,2.5189 -3.7441,0.5987 -3.7441,0.5987 -2.2382,2.3824 -2.2381,2.3824 -3.0757,0.035 -3.0757,0.035 -2.1793,1.2145 -2.1793,1.2146 -3.077,4.25 -3.0769,4.25 -6.2438,0.035 -6.2437,0.035 -2.5,1.4291 -2.5,1.4291 -3.5,0.071 -3.5,0.071 -2.5,1.4291 -2.5,1.4291 -10,0.071 -10,0.071 -2.5,1.4291 -2.5,1.4291 -2.7898,0.035 -2.7899,0.035 -3.7815,1.9292 c -2.0799,1.0611 -6.5478,2.8611 -9.9286,4 l -6.1471,2.0708 -84.9548,0 -84.9548,0 -2.9711,2.5 -2.9711,2.5 -18.7113,0 -18.7113,0 -2.9711,-2.5 -2.9711,-2.5 -4.2007,0 -4.2008,0 -2.1044,-1.474 -2.1044,-1.474 -3.3966,0.1277 -3.3967,0.1277 -2.1306,-1.1403 -2.1307,-1.1403 -4.8408,-0.396 -4.8408,-0.3959 -2.9283,-1.5663 c -1.6106,-0.8614 -3.1856,-1.4399 -3.5,-1.2856 -0.3144,0.1544 -2.2697,1.0575 -4.3451,2.0069 l -3.7735,1.7262 -9.2265,-0.254 -9.2266,-0.2539 -2.1203,1.1617 -2.1202,1.1616 -5.9272,0.1779 -5.9271,0.1778 -2.0607,-1.1028 -2.0606,-1.1028 -1.1527,2.5299 -1.1527,2.5299 -9.2393,-0.4877 c -5.0815,-0.2682 -9.6892,-0.478 -10.2392,-0.4663 -0.55,0.012 -6.9686,0.2244 -14.2635,0.4727 l -13.2635,0.4515 -1.6015,2.4442 -1.6015,2.4442 -6.4911,0 -6.4911,0 -1.9665,-2.5 -1.9665,-2.5 -104.7584,0 -104.7584,0 -1.3775,2.5738 -1.3775,2.5739 -1.8749,-2.5739 -1.8749,-2.5738 -4.9264,0 -4.9264,0 -1.7124,2 -1.7125,2 -1.7104,0 -1.7103,0 -0.6348,-2 -0.6348,-2 -1.7721,0 -1.7721,0 -1.2523,2.7486 -1.2523,2.7485 -1.4402,-2.7485 -1.4401,-2.7486 -1.445,0 -1.445,0 -1.634,2.4938 -1.634,2.4938 -1.9616,-2.4938 -1.9617,-2.4938 -1.9488,0 -1.9489,0 -1.1391,2.5 -1.139,2.5 -22.2171,0 -22.217,0 -1.2449,1.5 -1.2449,1.5 -14.2551,0 -14.2551,0 -1.2449,1.5 -1.2449,1.5 -11.2551,0 -11.2551,0 -1.2449,1.5 -1.2449,1.5 -12.7551,0 -12.7551,0 -1.2449,-1.5 -1.2449,-1.5 -6.7551,0 -6.7551,0 -1.2449,-1.5 -1.2449,-1.5 -17.2551,0 -17.2551,0 -1.2449,-1.5 -1.2449,-1.5 -55.399,0 -55.399,0 -1.1391,-2.5 -1.139,-2.5 -1.7171,0 -1.717,0 -1.2449,-1.5 -1.2449,-1.5 -2.3246,0 -2.3247,0 -4.7018,-2.5 c -2.586,-1.375 -5.2548,-2.5 -5.9305,-2.5 -0.6757,0 -1.7888,-0.675 -2.4735,-1.5 l -1.2449,-1.5 -1.7551,0 -1.7551,0 -1.2449,-1.5 -1.2449,-1.5 -1.5618,0 c -0.859,0 -3.5014,-0.9389 -5.872,-2.0865 -2.3706,-1.1476 -4.5643,-2.4976 -4.8748,-3 l -0.5645,-0.9135 -1.9625,0 -1.9624,0 -1.1391,-2.5 -1.139,-2.5 -1.7171,0 -1.717,0 -1.2449,-1.5 -1.2449,-1.5 -2.8185,0 -2.8186,0 -0.618,-1 -0.618,-1 -1.8186,0 -1.8185,0 -1.2449,-1.5 -1.2449,-1.5 -1.7551,0 -1.7551,0 -1.2449,-1.5 -1.2449,-1.5 -1.7551,0 -1.7551,0 -1.2449,-1.5 -1.2449,-1.5 -2.2551,0 -2.2551,0 -1.2449,-1.5 -1.2449,-1.5 -1.8424,0 -1.8423,0 -1.096,-2.0479 -1.096,-2.0478 -2.1892,-0.9498 c -1.2041,-0.5223 -2.8642,-1.3486 -3.6892,-1.8362 -0.825,-0.4876 -2.625,-1.398 -4,-2.0232 -1.375,-0.6252 -3.4,-1.3204 -4.5,-1.5449 -1.1,-0.2244 -3.8055,-1.2988 -6.0121,-2.3875 -2.2067,-1.0888 -4.8639,-2.9207 -5.905,-4.0711 l -1.888,-2.0922 -1.7225,0 -1.7226,0 -1.2449,-1.5 -1.2449,-1.5 -2.1275,-0.032 -2.1276,-0.032 -1.5138,-1.2182 c -0.8325,-0.67 -2.3054,-2.4557 -3.273,-3.9682 l -1.7593,-2.75 -1.322,0 -1.3219,0 -1.905,-2.1296 -1.905,-2.1296 -4.3329,-1.8704 -4.3329,-1.8704 -3.2947,0 -3.2946,0 -1.2449,-1.5 -1.2449,-1.5 -1.7551,0 -1.7551,0 -1.2449,-1.5 -1.2449,-1.5 -3.1275,-0.032 -3.1276,-0.032 -1.9411,-1.4682 -1.9412,-1.4682 -3.1864,0 -3.1864,0 -1.2449,-1.5 -1.2449,-1.5 -4.717,0 -4.7171,0 -1.139,-2.5 -1.1391,-2.5 -8.399,0 -8.399,0 -1.2449,-1.5 -1.2449,-1.5 -64.7632,0 -64.7633,0 -2.7658,-1.4349 -2.7659,-1.435 -4.6697,0.5531 -4.6697,0.553 -3.1291,-1.6181 -3.1291,-1.6181 -5.8585,0 -5.8585,0 -1.9412,-1.4682 -1.9411,-1.4682 -4.5,-0.067 -4.5,-0.067 -2.5,-1.4291 -2.5,-1.4291 -5.6276,-0.036 -5.6275,-0.035 -1.2449,-1.5 -1.2449,-1.5 -5.1864,0 -5.1864,0 -1.9412,-1.4682 -1.9411,-1.4682 -2.5095,-0.032 -2.5094,-0.032 -1.1596,-1.8569 -1.1597,-1.85681 -4.1117,-2.14314 c -2.2614,-1.17873 -4.7193,-2.14315 -5.462,-2.14315 -0.7427,0 -6.2414,-2.47458 -12.2192,-5.49906 -5.9779,-3.02449 -11.2509,-5.49949 -11.7178,-5.5 -0.4668,-5.2e-4 -2.4918,-0.76791 -4.5,-1.70531 l -3.6511,-1.70437 -1.314,-1.80606 -1.314,-1.80606 -6.3943,-2.98957 c -3.5169,-1.64426 -6.763,-2.98957 -7.2136,-2.98957 -0.4506,0 -3.4212,-1.35 -6.6015,-3 l -5.7822,-3 -2.2491,0 -2.249,0 -1.9412,-1.4682 c -1.0676,-0.8075 -2.6829,-1.4825 -3.5896,-1.5 -0.9066,-0.0175 -4.2816,-1.41233 -7.5,-3.09963 -3.2183,-1.68731 -6.9765,-4.04981 -8.3515,-5.25 -1.375,-1.2002 -3.5179,-2.75183 -4.7619,-3.44807 -1.244,-0.69625 -4.394,-2.00253 -7,-2.90285 -2.606,-0.90031 -6.0881,-1.73829 -7.7381,-1.86216 -1.65,-0.12388 -4.35,-0.71275 -6,-1.30862 -1.65,-0.59586 -5.3346,-1.77573 -8.1879,-2.62193 -2.8533,-0.8462 -6.4798,-1.53854 -8.0589,-1.53854 l -2.8709,0 -1.9412,-1.4682 -1.9411,-1.46819 -4.2821,-0.0318 -4.2821,-0.0318 -3.59,-1.5 -3.59,-1.5 -3.1279,-0.0318 -3.1279,-0.0318 -1.9411,-1.46819 -1.9412,-1.4682 -8.7634,0 -8.7634,0 -2.553,-2.55297 -2.5529,-2.55298 -9.7425,0.21322 -9.7425,0.21322 -3.2994,-1.71148 -3.2994,-1.71148 -9.2012,0.21993 -9.2011,0.21993 -2.2361,-1.19673 -2.2361,-1.19673 -51.0267,0 -51.0267,0 -1.8529,0.99165 -1.8529,0.99165 -3.1099,-1.17383 -3.1098,-1.17383 -3.7739,2.156 -3.7739,2.15599 -0.2701,21.77434 -0.2701,21.77433 -0.8559,0.85584 -0.8558,0.85584 -44.8767,-0.11018 -44.8766,-0.11017 -3.104,1.08206 -3.1041,1.08207 -1.1471,2.20215 -1.1472,2.20216 -0.2462,21.5 -0.2462,21.49998 -38,0.5 -38,0.5 -2.1145,1.2127 -2.1145,1.2126 -4.3855,-0.095 c -2.412,-0.052 -20.2561,-0.05 -39.6534,0.01 l -35.268,0.1 -2.5237,2.7231 -2.5237,2.7232 -2.7163,-1.6046 -2.7163,-1.6045 -1.9332,1.4135 c -1.0632,0.7775 -2.666,1.4136 -3.5617,1.4136 l -1.6285,0 -2.1993,-2.5293 -2.1992,-2.5294 -39.7311,-0.1211 c -21.8521,-0.067 -42.1254,-0.064 -45.0518,0.01 l -5.3207,0.1271 -2.3272,-1.5248 -2.3272,-1.5248 -18.6529,0.1639 -18.6529,0.164 -0.6367,-0.6367 -0.6367,-0.6367 0,-5.4432 0,-5.4432 1.8425,-2.036 1.8425,-2.0359 56.595,0.035 56.595,0.036 2.5,1.4291 2.5,1.4291 36.0589,0.036 36.0588,0.035 1.9412,-1.4682 1.9411,-1.4682 48.05,-0.032 48.05,-0.032 1.2,-1.2 1.2,-1.2 0,-19.8769 0,-19.87693 3.25,-3.01014 c 1.7875,-1.65558 4.1658,-3.87096 5.2852,-4.92307 l 2.0351,-1.91294 43.5149,0 43.5148,0 1.2,-1.2 1.2,-1.2 0,-18.98812 0,-18.98812 2.2116,-3.22755 2.2115,-3.22755 3.3224,-1.58433 3.3224,-1.58433 69.3439,0 69.344,0 3.59,1.5 3.59,1.5 7.8578,0 7.8578,0 2.3946,2.54897 2.3946,2.54897 10.0297,-0.16012 10.0297,-0.16012 3.8188,1.65332 3.8188,1.65332 7.1812,-0.22133 7.1812,-0.22134 2.1843,1.17917 2.1842,1.17916 4.1615,0 4.1614,0 2.6543,1.36135 c 1.4599,0.74875 4.2293,1.94437 6.1543,2.65694 l 3.5,1.29557 5.4823,0.44909 5.4823,0.44909 1.9902,1.39398 1.9902,1.39398 3.5864,0 3.5863,0 1.9412,1.4682 1.9411,1.46819 3.7148,0.0318 3.7148,0.0318 0.9429,1.76168 0.9428,1.76168 6.6528,3.311 6.6529,3.31101 3.5363,0.57387 3.5363,0.57387 9.6532,4.72293 c 5.3093,2.59761 12.1282,5.77332 15.1532,7.05712 l 5.5,2.3342 1.259,1.7282 1.259,1.72821 6.4937,3.06812 6.4936,3.06811 2.2547,0 2.2547,0 8.9927,4.48929 c 4.9459,2.46911 9.3396,4.49411 9.7636,4.5 0.4241,0.006 3.7991,1.46804 7.5,3.24922 l 6.729,3.23851 1.2583,1.69239 c 0.6921,0.93082 2.7171,2.42747 4.5,3.32589 1.7829,0.89842 5.6456,2.485 8.5836,3.52572 l 5.3419,1.89222 2.7696,-0.55392 2.7696,-0.55392 3.0888,1.5973 3.0889,1.5973 4.9272,0 4.9272,0 1.2449,1.5 1.2449,1.5 5.6275,0.0354 5.6276,0.0354 2.5,1.42913 2.5,1.42913 4.6276,0.0354 4.6275,0.0354 1.2449,1.5 1.2449,1.5 40.1972,0 40.1972,0 2.1738,2.50003 2.1737,2.5 32.8841,0 32.8842,0 1.2449,1.5 1.2449,1.5 6.655,0 6.6551,0 2.2848,1.6003 2.2848,1.6004 2.0953,-0.5479 2.0952,-0.548 3.4646,1.4476 3.4645,1.4476 4.8189,0 4.8189,0 0.5645,0.9135 c 0.3105,0.5024 2.5042,1.8524 4.8748,3 l 4.3101,2.0865 3.0619,0 3.0618,0 1.2449,1.5 1.2449,1.5 1.7551,0 1.7551,0 1.2449,1.5 1.2449,1.5 3.3102,0 3.3101,0 0.5929,1.8681 c 0.3261,1.0275 1.3729,2.574 2.3262,3.4367 l 1.7333,1.5686 2.8968,0.5253 2.8968,0.5253 2.6491,2.538 2.6491,2.538 1.5729,0 1.5728,0 1.2449,1.5 1.2449,1.5 1.6972,0 1.6972,0 2.1987,2.5287 2.1986,2.5286 2.9593,0.5919 2.9592,0.5918 1.1449,1.3795 1.1449,1.3795 1.637,0 1.637,0 1.2719,2.0367 1.272,2.0367 2.2186,0.9609 c 1.2202,0.5285 2.8936,1.3421 3.7186,1.8079 0.825,0.4658 2.5064,1.3669 3.7364,2.0024 1.2301,0.6355 3.3125,1.1554 4.6276,1.1554 l 2.3911,0 1.2449,1.5 1.2449,1.5 1.7551,0 1.7551,0 1.2449,1.5 1.2449,1.5 1.7551,0 1.7551,0 1.2449,1.5 1.2449,1.5 1.5618,0 c 0.859,0 3.5014,0.9389 5.872,2.0865 2.3706,1.1476 4.5643,2.4976 4.8748,3 0.3105,0.5024 1.3619,0.9135 2.3365,0.9135 l 1.772,0 1.338,2.5 1.338,2.5 1.7085,0 1.7086,0 1.2449,1.5 1.2449,1.5 2.8185,0 2.8186,0 0.618,1 0.618,1 1.8186,0 1.8185,0 1.2449,1.5 1.2449,1.5 1.7551,0 1.7551,0 1.2449,1.5 1.2449,1.5 1.7551,0 1.7551,0 1.2449,1.5 1.2449,1.5 2.2551,0 2.2551,0 1.2449,1.5 1.2449,1.5 1.899,0 1.899,0 1.1391,2.5 1.139,2.5 1.7171,0 1.717,0 1.2449,1.5 1.2449,1.5 1.6275,0.032 c 0.8952,0.017 2.5011,0.6925 3.5687,1.5 l 1.9412,1.4682 15.4801,0 15.4801,0 1.6876,-1.5272 1.6875,-1.5272 22.3498,-0.048 22.3497,-0.048 1.2198,1.6682 1.2198,1.6682 16.4618,-0.3068 16.4618,-0.3067 1.743,1.4465 1.743,1.4466 14.1168,-0.3056 14.1169,-0.3056 2,1.5408 2,1.5409 6.1276,0.032 6.1275,0.032 1.2296,1.4816 1.2297,1.4816 2.1153,-1.4816 2.1153,-1.4816 14.0275,-0.032 14.0275,-0.032 2,-1.5286 2,-1.5285 10,0.2338 10,0.2338 2.5,-1.3902 2.5,-1.3901 15.8031,0.3236 15.803,0.3237 1.7981,-1.6272 1.7982,-1.6273 142.2842,0.03 142.2842,0.03 1.3646,-1.1325 1.3646,-1.1325 0,-10.0249 0,-10.0249 -2.0582,-5.6026 -2.0582,-5.6027 -5.9664,-5.5 c -3.2816,-3.025 -8.0929,-7.6229 -10.6918,-10.2176 -2.599,-2.5947 -7.4254,-7.6864 -10.7254,-11.3149 l -6,-6.5972 -4,-2.5847 c -2.2,-1.4215 -4.3306,-3.0798 -4.7347,-3.6851 l -0.7347,-1.1005 -0.047,-6.5 -0.047,-6.5 -1.4682,-1.9411 -1.4682,-1.9412 0,-56.12789 0,-56.12791 -9.2148,-8.93096 c -5.0681,-4.91203 -10.6931,-10.66105 -12.5,-12.77558 l -3.2852,-3.84462 0,-34.23107 0,-34.23107 2.3145,-2.17432 2.3144,-2.17431 190.463,0 190.4631,0 2.0588,1.44206 2.0589,1.44207 5.4136,0.30793 5.4137,0.30794 0.2747,98.5 0.2747,98.50003 -0.5191,2.1517 -0.5191,2.1517 -4.2556,2.5015 -4.2556,2.5016 -5.0426,5.3468 c -2.7734,2.9407 -6.1336,6.9217 -7.467,8.8467 -1.3335,1.925 -2.8894,3.9648 -3.4575,4.5329 -0.5681,0.5681 -2.6079,2.1112 -4.5329,3.429 -1.925,1.3179 -6.0069,4.9031 -9.071,7.9671 -3.064,3.0641 -6.6492,7.146 -7.9671,9.071 -1.3178,1.925 -2.8609,3.9648 -3.429,4.5329 -0.5681,0.5681 -2.6079,2.114 -4.5329,3.4353 -1.925,1.3213 -5.9943,4.9064 -9.0428,7.9671 -3.0485,3.0606 -6.6272,7.1397 -7.9526,9.0647 -1.3253,1.925 -3.3311,4.3321 -4.4572,5.3491 -1.1261,1.017 -4.2003,2.9449 -6.8316,4.2841 l -4.7841,2.4351 -3.9404,3.9404 -3.9404,3.9404 -0.6371,2.5384 -0.6371,2.5385 1.2341,1.487 1.2341,1.487 64.1275,-0.035 64.1276,-0.035 2.5,-1.4291 2.5,-1.4291 3.0757,-0.035 3.0757,-0.035 2.3486,-2.5 2.3486,-2.5 1.9949,0 1.9948,0 5.3157,-3 5.3157,-3 12.0473,0 12.0472,0 3.59,-1.5 3.59,-1.5 5.8549,0 5.8548,0 1.5577,-2.3774 1.5577,-2.3774 4.7154,-1.7537 4.7153,-1.7538 2.5,-2.24 2.5,-2.2401 2.5616,-0.6006 2.5616,-0.6005 2.9384,-2.527 2.9384,-2.5271 3.5614,0 3.5615,0 2.0015,-1.8647 c 1.1009,-1.0256 2.9562,-2.3756 4.1229,-3 1.1666,-0.6244 2.8733,-1.1353 3.7926,-1.1353 l 1.6714,0 2.9711,-2.5 2.9711,-2.5 3.5768,0 3.5769,0 3.6928,-4 3.6928,-4 1.5031,0 1.5031,0 4.4005,-2.9818 4.4005,-2.9818 2.8086,-0.018 2.8087,-0.018 3.6913,-2.8886 3.6914,-2.8886 6.5,-2.6954 c 3.575,-1.4826 8.075,-3.4208 10,-4.3072 1.925,-0.8864 4.625,-2.6109 6,-3.8321 1.375,-1.2213 4.7045,-3.3832 7.3989,-4.8043 2.6945,-1.4211 5.4613,-2.5838 6.1485,-2.5838 0.6872,0 3.732,-1.3058 6.7661,-2.9019 3.0341,-1.596 7.0173,-3.223 8.8515,-3.6155 1.8343,-0.3924 3.8982,-1.1673 4.5866,-1.7218 l 1.2515,-1.0083 14.4419,0.1597 14.442,0.1597 2.2445,-3.0359 2.2446,-3.036 96.6208,0 96.6208,0 1.9412,1.4682 1.9411,1.4682 10.2997,0.032 10.2996,0.032 3.0004,1.5516 3.0004,1.5515 13.7602,-0.1883 13.7603,-0.1882 2.093,1.1201 2.0931,1.1202 48.5961,0.052 48.5961,0.052 2.2506,-1.2147 2.2505,-1.2146 7.216,0.2224 7.2159,0.2225 2.9844,-1.5433 2.9844,-1.5433 8.7996,-0.032 8.7997,-0.032 1.9411,-1.4682 1.9412,-1.4682 100.6177,0 100.6177,0 1.9412,1.4682 1.9411,1.4682 4.1276,0.032 4.1275,0.032 1.3242,1.5955 1.3242,1.5956 3.7379,-0.5977 3.7379,-0.5977 0.5582,0.9031 c 0.3069,0.4967 5.2794,3.1977 11.0498,6.0022 5.7705,2.8044 11.1372,5.099 11.9262,5.099 l 1.4344,0 2.326,3.0874 c 1.2794,1.6981 5.6425,6.7606 9.696,11.25 4.0534,4.4894 8.8909,9.8238 10.75,11.8541 l 3.3801,3.6915 0,1.3541 c 0,0.7448 2.025,5.2895 4.5,10.0994 l 4.5,8.7453 0.032,8.7091 0.032,8.7091 1.4682,1.9411 1.4682,1.9412 -0.01,2.0588 c 0,1.1324 -0.6783,3.3478 -1.5,4.9232 l -1.4938,2.8643 0,4.4418 0,4.4418 -3,6.0465 c -1.65,3.3256 -3,6.8162 -3,7.7568 l 0,1.7103 -3,2.8742 c -1.65,1.5808 -3,3.2995 -3,3.8194 0,0.5199 -2.925,3.7026 -6.5,7.0727 l -6.5,6.1274 0,2.5659 0,2.566 -2.5873,2.4243 -2.5873,2.4243 -1.284,3.064 -1.2839,3.064 -4.1288,3.27 -4.1287,3.2701 0,2.0025 0,2.0025 -5.7925,6.1635 -5.7924,6.1634 -1.8298,4 c -1.0064,2.2 -2.4498,5.274 -3.2076,6.831 l -1.3777,2.8311 0,2.7965 0,2.7965 -1.5,1.2449 -1.5,1.2449 0,8.2556 0,8.2556 -2.0538,1.3719 -2.0538,1.372 0,28 0,28 2.0538,1.372 2.0538,1.3719 0,6.7556 0,6.7556 1.5,1.2449 1.5,1.2449 0,3.2551 0,3.2551 1.5,1.2449 1.5,1.2449 0,3.0942 0,3.0943 6.25,12.4189 6.25,12.4189 3.25,2.4831 3.25,2.4831 0,1.0595 c 0,0.5827 3.2625,4.5274 7.25,8.766 3.9875,4.2386 8.3244,9.1419 9.6376,10.8961 l 2.3876,3.1897 3.8425,2.4256 c 2.1134,1.3341 4.4714,2.4257 5.24,2.4257 l 1.3974,0 1.2449,1.5 1.2449,1.5 1.6905,0 1.6904,0 2.8742,3 2.8742,3 1.7821,0 c 0.9802,0 3.5576,0.9254 5.7276,2.0565 l 3.9455,2.0565 0.5539,1.4435 0.5539,1.4435 2.7027,0 2.7026,0 1.8876,1.7082 1.8876,1.7083 3.0767,-0.2345 3.0766,-0.2344 2.3293,1.5262 2.3293,1.5262 2.9128,0 2.9127,0 1.2449,1.5 1.2449,1.5 9.7551,0 9.7551,0 1.2449,1.5 1.2449,1.5 122.2551,0 122.2552,0 1.245,1.5 1.245,1.5 11.255,0 11.255,0 1.245,1.5 1.245,1.5 14.127,0.032 14.128,0.032 1.941,1.4682 1.941,1.4682 25.274,0 25.274,0 1.07,2 1.07,2 6.43,0 6.43,0 1.07,-2 1.07,-2 11.343,0 11.342,0 1.245,-1.5 1.245,-1.5 14.755,0 14.755,0 1.245,-1.5 1.245,-1.5 9.627,-0.032 9.628,-0.032 1.941,-1.4682 1.941,-1.4682 99.687,0 99.686,0 1.245,1.5 1.245,1.5 4.627,0.01 4.628,0.01 2.864,1.4939 c 1.576,0.8216 3.677,1.4938 4.669,1.4938 0.993,0 3.304,0.7875 5.136,1.75 1.832,0.9625 3.674,2.2827 4.094,2.9339 0.419,0.6511 3.344,2.6725 6.5,4.4919 3.155,1.8195 7.987,4.3662 10.737,5.6594 l 5,2.3513 8.25,8.4804 8.25,8.4803 0,1.2714 0,1.2714 2.092,1.8929 c 1.15,1.0411 2.986,3.6983 4.079,5.905 1.093,2.2066 3.105,7.3871 4.472,11.5121 1.367,4.125 2.906,7.9275 3.421,8.45 l 0.936,0.95 0,9.2915 0,9.2916 2,1.249 2,1.249 0,1.5189 0,1.5189 -2,1.249 -2,1.249 0,5.977 0,5.9769 -3.214,6.2646 c -1.767,3.4455 -4.467,7.7428 -6,9.5494 l -2.786,3.2848 0,2.3876 0,2.3877 -4.834,4.3276 -4.835,4.3275 -3.766,7 -3.766,7 -6.905,7.5 c -3.797,4.125 -8.445,9.075 -10.327,11 l -3.423,3.5 -4.572,8.9544 -4.572,8.9544 0,2.6045 0,2.6044 -1.468,1.9412 -1.468,1.9411 -0.03,6.1276 -0.03,6.1275 -1.5,1.2449 -1.5,1.2449 -0.03,1.6275 c -0.02,0.8952 -0.692,2.5011 -1.5,3.5687 l -1.468,1.9412 0.03,21.0588 0.03,21.0589 1.468,1.9411 1.468,1.9412 0,5.1864 0,5.1864 1.5,1.2449 1.5,1.2449 0.03,4.6275 0.03,4.6276 1.468,1.9411 1.468,1.9412 0,3.1864 0,3.1864 1.5,1.2449 1.5,1.2449 0,3.2551 0,3.2551 1.5,1.2449 1.5,1.2449 0,1.3911 c 0,0.7651 0.422,2.1725 0.938,3.1276 0.516,0.955 2.094,4.3035 3.508,7.4411 l 2.57,5.7047 1.27,0.7953 c 0.699,0.4374 1.708,1.7952 2.243,3.0174 0.534,1.2221 5.536,7.0996 11.116,13.061 l 10.146,10.839 4.854,2.4982 4.855,2.4983 2.313,3.432 2.313,3.4321 3.354,1.6314 c 1.844,0.8972 4.698,2.5886 6.341,3.7586 1.643,1.17 3.651,2.1273 4.461,2.1273 l 1.473,0 1.245,1.5 1.245,1.5 1.755,0 1.755,0 1.245,1.5 1.245,1.5 3.255,0 3.255,0 1.245,1.5 1.245,1.5 3.627,0.032 3.628,0.032 1.941,1.4682 1.941,1.4682 5.569,0 5.568,0 1.249,2 1.249,2 6.241,0.032 6.242,0.032 1.941,1.4682 1.941,1.4682 133.559,0.035 133.559,0.035 2.5,1.4291 2.5,1.4291 6.059,0.035 6.059,0.035 1.941,1.4682 1.941,1.4682 4.559,0.032 4.559,0.032 1.941,1.4682 1.941,1.4682 3.128,0.032 3.127,0.032 1.245,1.5 1.245,1.5 2.686,0 2.687,0 1.941,1.4682 1.941,1.4682 2.173,0.032 2.174,0.032 4.326,3.2611 c 2.38,1.7936 7.09,4.7186 10.467,6.5 l 6.14,3.2389 1.988,0 1.987,0 1.245,1.5 1.245,1.5 1.818,0 1.819,0 0.574,0.9292 c 0.316,0.511 3.96,2.536 8.097,4.5 4.138,1.9639 8.195,3.5708 9.017,3.5708 l 1.493,0 0.561,1.4637 0.562,1.4637 9.157,4.6725 c 5.036,2.5698 10.351,5.5112 11.811,6.5363 1.46,1.0251 3.318,1.8638 4.128,1.8638 l 1.473,0 1.245,1.5 1.245,1.5 1.818,0 1.819,0 0.6,0.9715 c 0.331,0.5344 2.664,1.8844 5.187,3 2.522,1.1157 5.217,2.0285 5.99,2.0285 l 1.404,0 0.564,1.4701 0.564,1.47 9.846,5.03 9.846,5.0299 1.936,0 1.936,0 1.245,1.5 1.245,1.5 1.755,0 1.755,0 1.245,1.5 1.245,1.5 1.818,0 1.819,0 0.6,0.9715 c 0.331,0.5344 2.664,1.8844 5.187,3 2.522,1.1157 5.217,2.0285 5.99,2.0285 l 1.404,0 0.567,1.4771 0.566,1.4772 7.652,3.649 c 4.209,2.007 8.926,4.2673 10.483,5.0229 l 2.831,1.3738 13.669,-0.032 13.669,-0.032 1.941,-1.4682 1.941,-1.4682 52.687,0 52.686,0 1.245,-1.5 1.245,-1.5 11.318,0 11.319,0 0.57,-0.9231 c 0.314,-0.5076 1.911,-1.2173 3.548,-1.5769 l 2.977,-0.6539 0.655,-1.059 c 0.36,-0.5825 0.702,-2.0104 0.761,-3.1731 l 0.107,-2.114 2.177,-0.31 2.178,-0.3101 1.195,-1.4399 1.195,-1.44 1.755,0 1.755,0 1.245,-1.5 1.245,-1.5 1.627,-0.028 1.628,-0.028 3.928,-2.9722 3.928,-2.9722 1.4,0 1.4,0 3.922,-4.2058 c 2.157,-2.3131 3.922,-4.5106 3.922,-4.8833 0,-0.3727 0.895,-0.9116 1.988,-1.1975 l 1.988,-0.5199 0.895,-2.3467 0.895,-2.3468 5.175,-4.3585 5.175,-4.3586 -0.535,-0.5353 -0.535,-0.5354 2.977,-3.3909 2.977,-3.3909 0,-2.3428 0,-2.3427 1.5,-1.2449 1.5,-1.2449 0,-1.7551 0,-1.7551 1.5,-1.2449 1.5,-1.2449 0,-1.7551 0,-1.7551 1.5,-1.2449 1.5,-1.2449 0,-2.2556 0,-2.2556 2.169,-1.4401 2.169,-1.4402 -0.176,-4.6609 -0.177,-4.6609 2.505,-0.6286 2.504,-0.6285 1.265,-2.6424 1.265,-2.6423 14.781,-0.277 14.78,-0.277 2.18,1.527 2.18,1.527 17.655,0 17.655,0 1.245,1.5 1.245,1.5 9.627,-0.032 9.628,-0.032 1.941,-1.4682 1.941,-1.4682 9.059,-0.032 9.059,-0.032 1.941,-1.4682 1.941,-1.4682 95.187,0 95.186,0 1.245,1.5 1.245,1.5 11.255,0 11.255,0 1.245,1.5 1.245,1.5 7.186,0 7.187,0 1.941,1.4682 1.941,1.4682 31.628,0.032 31.627,0.032 1.245,1.5 1.245,1.5 11.255,0 11.255,0 1.245,-1.5 1.245,-1.5 11.255,0 11.255,0 1.245,-1.5 1.245,-1.5 11.255,0 11.255,0 1.245,-1.5 1.245,-1.5 11.255,0 11.255,0 1.252,-1.5088 1.252,-1.5087 52.621,0.2587 52.62,0.2588 0.5,49.5 0.5,49.5 14.649,0.2762 14.65,0.2761 1.223,1.4739 1.223,1.4738 8.255,0 8.255,0 1.245,1.5 1.245,1.5 36.255,0 36.255,0 1.245,-1.5 1.245,-1.5 6.755,0 6.755,0 1.245,-1.5 1.245,-1.5 40.755,0 40.755,0 1.245,1.5 1.245,1.5 11.255,0 11.255,0 1.245,1.5 1.245,1.5 33.255,0 33.255,0 1.245,-1.5 1.245,-1.5 11.255,0 11.255,0 1.245,-1.5 1.245,-1.5 289.127,0.032 289.128,0.032 1.941,1.4682 1.941,1.4682 10.618,0 10.618,0 1.941,1.4682 1.941,1.4682 10.559,0.032 10.559,0.032 1.941,1.4682 1.941,1.4682 10.559,0.032 10.559,0.032 1.941,1.4682 1.941,1.4682 33.128,0.032 33.127,0.032 1.245,-1.5 1.245,-1.5 13.627,-0.035 13.628,-0.035 2.5,-1.4291 2.5,-1.4291 7.628,-0.035 7.627,-0.035 1.245,-1.5 1.245,-1.5 11.255,0 11.255,0 1.245,-1.5 1.245,-1.5 39.755,0 39.755,0 1.245,1.5 1.245,1.5 7.127,0.032 7.128,0.032 1.941,1.4682 1.941,1.4682 24.059,-0.032 24.059,-0.032 1.941,-1.4682 1.941,-1.4682 8.559,-0.032 8.559,-0.032 1.941,-1.4682 1.941,-1.4682 15.75,0 15.75,0 0.611,-0.9887 0.611,-0.9887 0.198,-23.7613 0.198,-23.7613 11.602,-0.2805 11.603,-0.2804 1.27,1.5304 1.27,1.5305 11.255,0 11.255,0 1.245,1.5 1.245,1.5 22.255,0 22.255,0 1.245,-1.5 1.245,-1.5 9.755,0 9.755,0 1.223,-1.4738 1.223,-1.4739 14.65,-0.2761 14.649,-0.2762 0.5,-24.5 0.5,-24.5 85.917,-0.2556 85.917,-0.2556 2.298,1.5056 2.298,1.5056 10.344,0 10.344,0 1.941,1.4682 1.941,1.4682 12.559,0.032 12.559,0.032 1.941,1.4682 1.941,1.4682 29.628,0.032 29.627,0.032 1.245,1.5 1.245,1.5 9.755,0 9.755,0 1.245,-1.5 1.245,-1.5 14.127,-0.032 14.128,-0.032 1.941,-1.4682 1.941,-1.4682 10.559,-0.032 10.559,-0.032 1.941,-1.4682 1.941,-1.4682 10.559,-0.032 10.559,-0.032 1.941,-1.4682 1.941,-1.4682 101.687,0 101.686,0 1.219,1.4691 1.22,1.4691 11.609,0.2809 11.61,0.2809 0.587,2.5 0.587,2.5 11.61,0.2809 11.609,0.2809 1.22,1.4691 1.219,1.4691 1.627,10e-4 1.628,0 5.211,4.9989 5.212,4.999 4.351,0 4.352,0 2.874,3 2.874,3 1.622,0 c 0.892,0 2.495,0.6607 3.563,1.4682 1.067,0.8075 2.673,1.4825 3.569,1.5 l 1.627,0.032 1.245,1.5 1.245,1.5 3.255,0 3.255,0 1.245,1.5 1.245,1.5 1.724,0 1.724,0 3.604,3.5 3.604,3.5 1.427,0 1.427,0 1.245,1.5 1.245,1.5 3.255,0 3.255,0 1.245,1.5 1.245,1.5 1.627,0.041 1.628,0.041 3.462,2.9593 3.462,2.9594 1.666,0 1.665,0 1.245,1.5 1.245,1.5 3.255,0 3.255,0 1.245,1.5 1.245,1.5 2.009,0 2.01,0 3.301,3.5 3.301,3.5 1.444,0 1.445,0 1.245,1.5 1.245,1.5 3.255,0 3.255,0 1.245,1.5 1.245,1.5 1.843,0 1.842,0 3.417,3 3.417,3 1.496,0 1.495,0 1.245,1.5 1.245,1.5 3.255,0 3.255,0 1.245,1.5 1.245,1.5 2.009,0 2.01,0 3.301,3.5 3.301,3.5 1.444,0 1.445,0 1.245,1.5 1.245,1.5 3.255,0 3.255,0 1.245,1.5 1.245,1.5 2.255,0 2.255,0 1.245,1.5 1.245,1.5 4.755,0 4.755,0 1.266,1.5252 1.266,1.5253 1.685,-1.5253 1.685,-1.5252 9.549,0 9.549,0 1.245,-1.5 1.245,-1.5 26.686,0 26.687,0 1.941,1.4682 1.941,1.4682 10.559,0.032 10.559,0.032 1.941,1.4682 1.941,1.4682 17.128,0.032 17.127,0.032 1.245,1.5 1.245,1.5 1.391,0 c 0.765,0 2.252,0.5374 3.303,1.1943 l 1.913,1.1942 2.621,-1.1942 2.621,-1.1943 10.203,-0.032 10.203,-0.032 1.941,-1.4682 1.941,-1.4682 8.559,-0.032 8.559,-0.032 1.941,-1.4682 1.941,-1.4682 23.618,0 23.618,0 1.941,-1.4682 1.941,-1.4682 113.059,-0.032 113.059,-0.032 1.941,1.4682 1.941,1.4682 10.559,0.032 10.559,0.032 1.941,1.4682 1.941,1.4682 17.421,0.032 17.422,0.032 1.578,1.3584 c 0.869,0.7471 2.977,1.8262 4.685,2.3979 l 3.106,1.0394 1.394,-0.8825 1.394,-0.8826 9.628,-0.015 9.627,-0.015 1.245,-1.5 1.245,-1.5 11.255,0 11.255,0 1.245,-1.5 1.245,-1.5 23.755,0 23.755,0 1.245,-1.5 1.245,-1.5 114.755,0 114.755,0 1.245,1.5 1.245,1.5 11.255,0 11.255,0 1.226,1.4768 1.225,1.4769 17.135,0.2731 17.134,0.2732 1.317,2.75 1.317,2.75 3.823,0 3.823,0 1.245,-1.5 1.245,-1.5 11.255,0 11.255,0 1.245,-1.5 1.245,-1.5 11.255,0 11.255,0 1.245,-1.5 1.245,-1.5 23.755,0 23.755,0 1.245,-1.5 1.245,-1.5 111.255,0 111.255,0 1.245,1.5 1.245,1.5 12.186,0 12.187,0 1.941,1.4682 1.941,1.4682 17.628,0.032 17.627,0.032 1.245,1.5 1.245,1.5 1.755,0 1.755,0 1.245,1.5 1.245,1.5 2.255,0 2.255,0 1.245,-1.5 1.245,-1.5 9.127,-0.032 9.128,-0.032 1.941,-1.4682 1.941,-1.4682 7.48,0 7.481,0 1.807,1.6361 1.808,1.6361 0.521,-1.6361 c 0.287,-0.8998 0.732,-2.3111 0.99,-3.1361 l 0.468,-1.5 23.782,-0.032 23.781,-0.032 1.941,-1.4682 1.941,-1.4682 102.309,0 102.309,0 0,6.9545 0,6.9546 -2.545,2.5454 -2.546,2.5455 -93.832,0 -93.832,0 -1.245,1.5 -1.245,1.5 -25.255,0 -25.255,0 -1.245,1.5 -1.245,1.5 -9.755,0 -9.755,0 -1.245,1.5 -1.245,1.5 -11.255,0 -11.255,0 -1.245,1.5 -1.245,1.5 -6.755,0 -6.755,0 -1.245,-1.5 -1.245,-1.5 -4.755,0 -4.755,0 -1.245,-1.5 -1.245,-1.5 -12.627,-0.015 -12.628,-0.015 -1.134,-0.7347 c -0.624,-0.4041 -1.304,-1.6347 -1.511,-2.7347 l -0.375,-2 -2.078,-0.2983 -2.077,-0.2982 -1.285,1.5482 -1.285,1.5483 -11.255,0 -11.255,0 -1.245,-1.5 -1.245,-1.5 -103.627,0.032 -103.628,0.032 -1.941,1.4682 -1.941,1.4682 -24.687,0 -24.686,0 -1.245,1.5 -1.245,1.5 -11.127,0.032 -11.128,0.032 -1.941,1.4682 -1.941,1.4682 -13.687,0 -13.686,0 -1.245,1.5 -1.245,1.5 -6.755,0 -6.755,0 -1.245,-1.5 -1.245,-1.5 -3.255,0 -3.255,0 -1.245,-1.5 -1.245,-1.5 -14.255,0 -14.255,0 -1.245,-1.5 -1.245,-1.5 -8.255,0 -8.255,0 -1.245,-1.5 -1.245,-1.5 -107.33,0 -107.331,0 -2.574,1.1729 -2.574,1.1728 -1.173,-1.1728 -1.173,-1.1729 -2.178,0 -2.177,0 -1.245,1.5 -1.245,1.5 -18.627,0.032 -18.628,0.032 -1.941,1.4682 -1.941,1.4682 -9.187,0 -9.186,0 -1.245,1.5 -1.245,1.5 -11.255,0 -11.255,0 -1.245,1.5 -1.245,1.5 -7.627,-0.015 -7.628,-0.015 -1.134,-0.7347 c -0.624,-0.4041 -1.305,-1.6347 -1.513,-2.7347 l -0.379,-2 -21.131,-0.2696 -21.131,-0.2696 -1.228,-1.4804 -1.229,-1.4804 -12.755,0 -12.755,0 -1.245,-1.5 -1.245,-1.5 -103.755,0 -103.755,0 -1.245,1.5 -1.245,1.5 -25.255,0 -25.255,0 -1.245,1.5 -1.245,1.5 -9.755,0 -9.755,0 -1.245,1.5 -1.245,1.5 -14.255,0 -14.255,0 -1.245,1.5 -1.245,1.5 -6.755,0 -6.755,0 -1.245,-1.5 -1.245,-1.5 -3.255,0 -3.255,0 -1.245,-1.5 -1.245,-1.5 -16.255,0 -16.255,0 -1.245,-1.5 -1.245,-1.5 -7.755,0 -7.755,0 -1.245,-1.5 -1.245,-1.5 -20.755,0 -20.755,0 -1.245,1.5 -1.245,1.5 -12.627,0.032 -12.628,0.032 -1.941,1.4682 -1.941,1.4682 -7.687,0 -7.686,0 -1.245,-1.5 -1.245,-1.5 -1.755,0 -1.755,0 -1.245,-1.5 -1.245,-1.5 -5.27,0 -5.271,0 -0.519,-1.3533 -0.52,-1.3534 -4.118,-2.1466 -4.119,-2.1467 -3.346,0 -3.347,0 -1.245,-1.5 -1.245,-1.5 -1.69,0 -1.691,0 -2.874,-3 -2.874,-3 -1.691,0 -1.69,0 -1.245,-1.5 -1.245,-1.5 -3.755,0 -3.755,0 -1.199,-1.4442 -1.198,-1.4441 -3.67,-0.3059 -3.669,-0.3058 -0.505,-2.7493 -0.504,-2.7494 -3.746,-2.0006 -3.747,-2.0007 -3.381,0 -3.381,0 -1.245,-1.5 -1.245,-1.5 -1.69,0 -1.691,0 -2.874,-3 -2.874,-3 -1.691,0 -1.69,0 -1.245,-1.5 -1.245,-1.5 -3.755,0 -3.755,0 -1.245,-1.5 -1.245,-1.5 -1.848,0 -1.847,0 -2.28,-3.1 -2.28,-3.1 -3.71,-1.9 -3.71,-1.9 -3.418,0 -3.417,0 -1.245,-1.5 -1.245,-1.5 -1.69,0 -1.691,0 -2.874,-3 -2.874,-3 -1.691,0 -1.69,0 -1.245,-1.5 -1.245,-1.5 -3.755,0 -3.755,0 -1.245,-1.5 -1.245,-1.5 -1.755,0 -1.755,0 -1.245,-1.5 c -0.685,-0.825 -1.802,-1.5 -2.483,-1.5 l -1.237,0 -3.663,-3.4548 -3.664,-3.4549 -6.726,-0.2951 -6.727,-0.2952 -0.303,-2.1257 -0.304,-2.1258 -2.206,-2.0731 -2.207,-2.0731 -6.948,-0.3011 -6.949,-0.3012 -0.585,-2.5 -0.585,-2.5 -11.738,-0.282 -11.738,-0.282 -0.598,-2.9888 c -0.328,-1.6439 -0.938,-3.1995 -1.355,-3.457 l -0.757,-0.4682 -1.236,1.489 -1.236,1.489 -94.369,0 -94.369,0 -1.249,2 -1.249,2 -11.137,0 -11.137,0 -1.245,1.5 -1.245,1.5 -14.255,0 -14.255,0 -1.245,1.5 -1.245,1.5 -11.127,0.032 -11.128,0.032 -1.941,1.4682 -1.941,1.4682 -14.187,0 -14.186,0 -1.245,-1.5 -1.245,-1.5 -4.755,0 -4.755,0 -1.245,1.5 -1.245,1.5 -3.186,0 -3.187,0 -1.941,-1.4682 -1.941,-1.4682 -20.128,-0.032 -20.127,-0.032 -1.245,-1.5 -1.245,-1.5 -12.686,0 -12.687,0 -1.941,-1.4682 -1.941,-1.4682 -11.215,-0.032 -11.215,-0.032 -1.073,-2.0062 -1.074,-2.0061 -77.211,0.2561 -77.212,0.2562 -0.5,22.5 -0.5,22.5 -1.865,2.75 -1.865,2.75 -19.263,0 -19.262,0 -1.245,1.5 -1.245,1.5 -12.755,0 -12.755,0 -1.245,1.5 -1.245,1.5 -9.755,0 -9.755,0 -1.245,1.5 -1.245,1.5 -1.755,0 -1.755,0 -1.245,-1.5 -1.245,-1.5 -8.255,0 -8.255,0 -1.245,-1.5 -1.245,-1.5 -11.255,0 -11.255,0 -1.285,-1.5483 -1.285,-1.5482 -2.087,0.2982 -2.088,0.2983 -0.5,24.5 -0.5,24.5 -21.144,0.2696 -21.144,0.2696 -1.228,1.4804 -1.229,1.4804 -14.127,0.032 -14.128,0.032 -1.941,1.4682 -1.941,1.4682 -20.187,0 -20.186,0 -1.245,-1.5 -1.245,-1.5 -11.255,0 -11.255,0 -1.245,-1.5 -1.245,-1.5 -33.255,0 -33.255,0 -1.245,1.5 -1.245,1.5 -14.127,0.032 -14.128,0.032 -1.941,1.4682 -1.941,1.4682 -7.687,0 -7.686,0 -1.245,1.5 -1.245,1.5 -17.686,0 -17.687,0 -1.941,1.4682 -1.941,1.4682 -32.628,0.032 z M 8613.5,1086 l 11.382,0 0.5479,-0.8866 0.548,-0.8867 3.7611,-0.7028 c 2.0685,-0.3866 4.211,-1.0593 4.761,-1.4949 0.55,-0.4356 2.575,-1.0291 4.5,-1.3188 1.925,-0.2898 5.9191,-1.3834 8.8758,-2.4303 l 5.3758,-1.9035 1.1242,-1.4801 c 0.6183,-0.8141 2.6992,-2.1812 4.6242,-3.0382 1.925,-0.8569 4.9625,-2.1302 6.75,-2.8294 1.7875,-0.6992 3.25,-1.5907 3.25,-1.981 0,-0.3904 1.2375,-1.3278 2.75,-2.0832 1.5125,-0.7554 3.7651,-2.2623 5.0058,-3.3487 1.2406,-1.0864 4.6156,-3.1753 7.5,-4.6421 l 5.2442,-2.6669 2.7439,-4.0459 2.7438,-4.0458 10.0062,-9.5142 10.0061,-9.5142 0,-1.5166 0,-1.5166 2.3508,-2.8268 c 1.2929,-1.5547 4.4429,-7.1464 7,-12.4259 2.5571,-5.2796 4.6635,-10.22962 4.681,-11.00004 0.017,-0.77042 0.6925,-2.27427 1.5,-3.34189 l 1.4682,-1.94113 0,-3.63456 0,-3.63455 2.5,-2.34863 2.5,-2.34863 0.035,-6.07568 0.035,-6.07569 1.4291,-2.5 1.4291,-2.5 0,-9.5 0,-9.5 -1.4682,-1.94113 -1.4682,-1.94113 0,-7.63456 0,-7.63455 -2.5,-2.34863 -2.5,-2.34863 0,-3.63455 0,-3.63456 -1.4682,-1.94113 c -0.8075,-1.06762 -1.4825,-2.56891 -1.5,-3.3362 -0.017,-0.76729 -1.6127,-4.68187 -3.5449,-8.69907 -1.9322,-4.0172 -3.9657,-7.58376 -4.519,-7.9257 -0.5533,-0.34193 -2.1224,-2.82489 -3.4869,-5.51769 -1.3646,-2.69279 -2.481,-5.53173 -2.481,-6.30876 l 0,-1.41279 -4.5155,-3.70012 -4.5155,-3.70013 -1.5092,-2.9184 -1.5092,-2.91839 -6.0063,-3.03199 -6.0063,-3.03199 -0.6045,-3.0224 -0.6045,-3.0224 -3.1145,-2.33805 -3.1145,-2.33804 -3.4672,-0.73666 c -1.9069,-0.40516 -4.1569,-1.10226 -5,-1.5491 -0.843,-0.44684 -2.7403,-1.06567 -4.2161,-1.37517 l -2.6834,-0.56273 -0.577,-1.81795 -0.577,-1.81795 -5.259,-2.17972 -5.259,-2.17973 -5.9162,0 -5.9162,0 -2.3927,-2.25 -2.3927,-2.25 -20.9111,-0.30604 -20.9112,-0.30604 -2.5561,2.55604 -2.556,2.55604 -6.3321,0 -6.3321,0 -1.2449,1.5 -1.2449,1.5 -4.3713,0 -4.3714,0 -9.6695,4.54857 -9.6696,4.54856 -2.9134,2.45144 -2.9134,2.45143 -1.8723,0 -1.8724,0 -2.403,3.25 c -1.3217,1.7875 -2.6846,4.04831 -3.0288,5.02402 l -0.6257,1.77403 -1.8758,0.72597 c -1.0318,0.39929 -5.026,3.6519 -8.8761,7.22802 l -7.0002,6.50204 -0.761,2.49796 c -0.4186,1.37388 -1.6404,3.45996 -2.715,4.63574 -1.0747,1.17578 -4.173,6.57578 -6.8851,12 L 8501,906.5 l -0.032,3 -0.032,3 -1.4682,1.94113 -1.4682,1.94113 -0.035,10.55887 -0.035,10.55887 -1.4291,2.5 -1.4291,2.5 0,15 0,15 1.4291,2.5 1.4291,2.5 0.035,9.05 0.035,9.05 0.8989,0.95 c 0.4945,0.5225 3.7977,6.575 7.3406,13.45 3.5428,6.875 6.7528,13.7613 7.1333,15.3028 l 0.6918,2.8028 3.5107,2.0713 3.5107,2.0714 1.8597,3.6259 c 1.0228,1.9942 2.916,4.6083 4.207,5.8092 1.291,1.2009 3.5348,2.6332 4.9862,3.183 l 2.6389,0.9996 2.8611,4.2277 2.8611,4.2276 3.9556,1.3582 c 2.1756,0.747 4.8756,2.1826 6,3.1903 1.1244,1.0077 2.8358,2.1116 3.8031,2.4531 l 1.7586,0.621 1.0596,2.278 1.0596,2.2781 3.6817,1.6124 c 2.025,0.8869 5.8193,2.3866 8.4318,3.3327 l 4.75,1.7203 0,0.9155 0,0.9154 4.75,2.9829 4.75,2.9828 3.1357,0.019 3.1357,0.019 2.8643,1.4938 c 1.5754,0.8217 3.8502,1.4967 5.0553,1.5 l 2.191,0.01 0.618,1 0.618,1 11.382,0 z m 2118.981,667 -83.481,0 -1.829,-1.8289 -1.829,-1.829 -5.109,-1.671 c -2.81,-0.9191 -6.246,-1.6711 -7.635,-1.6711 l -2.527,0 -10.266,-5.1956 -10.265,-5.1957 -6.77,-6.7699 -6.77,-6.7698 0,-1.4944 0,-1.4943 -4,-1.1984 -4,-1.1985 0,-1.7192 0,-1.7193 -1.442,-1.1969 -1.442,-1.1969 -0.308,-3.0747 -0.308,-3.0747 -2,-1.1009 c -1.1,-0.6054 -2.111,-1.1373 -2.248,-1.1818 -0.136,-0.045 -1.148,-3.6041 -2.25,-7.91 -1.101,-4.3059 -2.002,-8.9054 -2.002,-10.221 l 0,-2.392 -2.75,-0.9578 -2.75,-0.9578 0.315,-26.2402 0.316,-26.2402 1.434,-2.2148 1.435,-2.2148 0,-3.0883 0,-3.0882 2.5,-3.6791 2.5,-3.6791 0,-2.633 0,-2.633 2.02,-2.5679 2.02,-2.5679 2.23,-0.317 2.23,-0.3169 0.32,-2.2522 0.32,-2.2522 1.862,-0.9967 1.863,-0.9968 0.601,-1.8935 0.601,-1.8935 3.053,-1.2648 3.053,-1.2648 2.414,-3.8229 c 1.327,-2.1026 2.413,-4.4525 2.413,-5.2221 l 0,-1.3993 3.948,-4.0679 c 2.171,-2.2373 5.321,-4.7782 7,-5.6463 l 3.052,-1.5784 0,-3.8394 0,-3.8395 2.24,-2.8471 c 1.231,-1.5659 3.034,-4.2141 4.005,-5.8849 0.971,-1.6707 2.482,-4.6127 3.359,-6.5377 0.876,-1.925 2.223,-4.774 2.994,-6.331 l 1.402,-2.8311 0,-3.2965 0,-3.2965 1.5,-1.2449 1.5,-1.2449 0,-4.0488 0,-4.0488 1.684,-1.8603 1.683,-1.8602 -0.263,-20.7185 -0.263,-20.7185 -1.421,-1.5787 -1.42,-1.5788 -0.03,-2.9212 -0.04,-2.9213 -1.429,-2.5 -1.429,-2.5 -0.04,-2.55 -0.03,-2.55 -1.198,-1.1979 -1.198,-1.1979 -0.655,-6.2521 -0.655,-6.2521 -3.2,-4.7239 c -1.76,-2.5981 -3.592,-4.9658 -4.07,-5.2614 -0.479,-0.2957 -1.141,-1.7726 -1.473,-3.2821 l -0.603,-2.7444 -3.704,-1.9941 -3.704,-1.9941 -0.733,-2.5 c -0.403,-1.375 -0.983,-3.7375 -1.289,-5.25 l -0.556,-2.75 -1.473,0 -1.472,0 -6.476,-6.35 -6.476,-6.3499 -1.015,-2.668 -1.014,-2.668 -2.324,-0.8837 c -1.279,-0.486 -3.737,-2.072 -5.463,-3.5245 l -3.139,-2.6409 -9.539,-4.4575 c -5.246,-2.4516 -10.194,-4.4575 -10.996,-4.4575 -0.801,0 -1.711,-0.4111 -2.022,-0.9135 -0.31,-0.5024 -2.504,-1.8524 -4.874,-3 l -4.31,-2.0865 -2.37,0 -2.37,0 -2.065,-1.9265 -2.064,-1.9265 -4.5,-1.6664 -4.5,-1.6664 -4.015,-0.2463 -4.016,-0.2464 -2.169,-1.1607 -2.169,-1.1608 -12.943,0 -12.943,0 -1.359,-1.637 -1.358,-1.6371 -26.014,0.6937 c -14.308,0.3816 -26.914,0.712 -28.014,0.7342 -1.1,0.022 -5.519,-0.365 -9.82,-0.8606 l -7.82,-0.9012 -0.918,-1.446 -0.919,-1.446 0.239,-72.9866 0.238,-72.9866 2.978,-1.4271 2.977,-1.427 40.523,1.316 40.522,1.3161 150.5,0.3945 150.5,0.3945 4.306,1.6102 4.305,1.6101 1.695,3.093 1.694,3.0929 0.276,268 0.276,268 -0.545,2.25 -0.545,2.25 -83.481,0 z M 498.12279,1534 l -19.77416,0 -2.38402,-2.5377 -2.38402,-2.5376 -7.04029,0.2168 -7.0403,0.2168 -2.18426,-1.1791 -2.18426,-1.1792 -7.37461,0 -7.37461,0 -1.94113,-1.4682 -1.94113,-1.4682 -9.62756,-0.032 -9.62755,-0.032 -1.24489,-1.5 -1.24489,-1.5 -15.4433,0 -15.44329,0 -1.73814,0.9302 -1.73814,0.9302 -1.31195,-0.8108 -1.31195,-0.8108 -2.63417,1.3744 c -1.44879,0.756 -3.14157,1.3773 -3.76173,1.3806 -0.62015,0 -1.69616,-0.6789 -2.39114,-1.5163 l -1.26359,-1.5226 -2.32367,1.5226 -2.32367,1.5225 -105.78519,0.032 -105.78518,0.032 -2,1.5215 -2,1.5216 -10.69416,-0.2222 -10.69417,-0.2221 -1.49223,1.2385 -1.49223,1.2384 -27.634423,-0.01 -27.634428,-0.01 -1.469543,-1.2196 -1.469543,-1.2196 -12.287686,0.2156 -12.287685,0.2156 -1.294396,-1.5596 L 37.755111,1524 26.627555,1523.9682 15.5,1523.9364 13.55887,1522.4682 11.617741,1521 8.0588704,1520.9667 4.5,1520.9335 2.25,1519.0564 0,1517.1794 0,1511.0897 0,1505 l 2.3775553,0 2.3775553,0 L 6,1503.5 7.2448894,1502 14,1502 l 6.755111,0 1.244889,1.5 1.244889,1.5 12.755584,0 12.755583,0 1.410431,2.1242 1.410432,2.1242 11.046275,-0.1758 11.046275,-0.1758 1.28771,1.5516 1.28771,1.5516 19.186426,0 19.186425,0 1.94113,-1.4682 1.94113,-1.4682 9.24153,-0.032 9.24152,-0.032 1.24902,-2 1.24902,-2 12.63701,0 12.63701,0 1.24489,-1.5 1.24489,-1.5 128.62755,0.032 128.62756,0.032 1.94113,1.4682 1.94113,1.4682 7.06832,0 7.06833,0 1.24902,2 1.24902,2 8.80039,0 8.8004,0 1.94113,1.4682 1.94113,1.4682 8,0.064 8,0.064 1.94113,1.4682 1.94113,1.4682 11.05887,-0.032 11.05887,-0.032 1.94113,-1.4682 1.94113,-1.4682 9.11774,0 9.11774,0 1.94113,-1.4682 1.94113,-1.4682 7.6933,-0.032 7.69329,-0.032 1.39408,-1.9903 1.39408,-1.9903 150.41262,-0.4528 c 82.72695,-0.249 152.88763,-0.4785 155.91263,-0.51 3.025,-0.031 14.11702,0.1948 24.64894,0.5027 l 19.14894,0.5599 1.75605,1.9404 1.75605,1.9404 14.59501,0.035 14.59501,0.035 2.5,1.4291 2.5,1.4291 14.5,0.071 14.5,0.071 2.5,1.4291 2.5,1.4291 13,0 13,0 2.5,-1.4291 2.5,-1.4291 17.1357,-0.035 17.1357,-0.035 2.8643,-1.4938 2.8643,-1.4939 16.595,-0.01 16.595,-0.01 1.81,-2 1.81,-2 16.095,-0.032 16.095,-0.032 1.9411,-1.4682 1.9412,-1.4682 56.0588,0.035 56.0589,0.035 2.5,1.4291 2.5,1.4291 4.7148,0.035 4.7148,0.035 1.0704,2 1.0704,2 5.2737,0 5.2736,0 1.9412,1.4682 1.9411,1.4682 5.0589,0.032 5.0588,0.032 1.9412,1.4682 1.9411,1.4682 11,0 11,0 2.5,-1.4291 2.5,-1.4291 7.5,-0.067 7.5,-0.067 1.9411,-1.4682 1.9412,-1.4682 5.2736,0 5.2737,0 1.0704,-2 1.0704,-2 3.1158,0 3.1158,0 12.099,-5.8831 c 6.6545,-3.2357 15.5439,-7.5251 19.7543,-9.5321 l 7.6553,-3.6489 0.5271,-1.3737 0.5272,-1.3736 3.0561,-0.6712 c 1.6808,-0.3692 3.3128,-1.0867 3.6265,-1.5943 l 0.5705,-0.9231 2.5287,0 2.5286,0 9.6624,-4.6113 c 5.3143,-2.5362 12.5873,-5.9937 16.1623,-7.6832 3.575,-1.6896 8.3,-4.2357 10.5,-5.6581 2.2,-1.4224 9.175,-4.9957 15.5,-7.9407 6.325,-2.945 12.6944,-5.9738 14.1543,-6.7307 1.4599,-0.7568 3.5608,-1.376 4.6688,-1.376 l 2.0145,0 8.3312,-4.1119 c 4.5822,-2.2615 9.2891,-4.624 10.4598,-5.25 1.1708,-0.626 3.8708,-2.2818 6,-3.6796 2.1293,-1.3979 7.2464,-4.0131 11.3714,-5.8117 4.125,-1.7986 11.4462,-5.2674 16.2694,-7.7085 l 8.7694,-4.4383 2.9721,0 2.9722,0 1.249,-2 1.249,-2 2.5683,0 2.5683,0 1.9412,-1.4682 1.9411,-1.4682 6.6276,-0.032 6.6275,-0.032 1.2449,-1.5 1.2449,-1.5 4.7551,0 4.7551,0 1.2449,-1.5 1.2449,-1.5 59.7551,0 59.7551,0 1.2003,1.4463 1.2004,1.4463 4.1721,0.3037 4.1721,0.3037 0,7.459 0,7.459 -3.3426,0.6837 c -1.8385,0.376 -3.841,1.1819 -4.45,1.7909 L 1693.6,1424 l -63.55,0.032 -63.55,0.032 -1.9411,1.4682 -1.9412,1.4682 -4.1867,0 -4.1868,0 -3.7388,1.5622 -3.7389,1.5622 -1.4374,-0.5516 -1.4374,-0.5516 -4.8211,2.443 -4.821,2.443 -0.5934,1.5464 -0.5934,1.5464 -1.4043,0 c -0.7723,0 -3.374,0.9138 -5.7814,2.0306 -2.4074,1.1169 -5.0521,2.3959 -5.8771,2.8423 -0.825,0.4465 -2.4,1.3355 -3.5,1.9758 -1.1,0.6402 -2.675,1.4215 -3.5,1.7361 -0.825,0.3146 -2.6944,1.2118 -4.1543,1.9936 l -2.6543,1.4216 -2.487,0 -2.4871,0 -9.1093,4.5 c -5.0101,2.475 -9.4893,4.5 -9.9537,4.5 -0.4644,0 -1.6588,0.9 -2.6543,2 -0.9955,1.1 -2.3601,2 -3.0325,2 -0.6725,0 -1.7828,0.675 -2.4675,1.5 l -1.2449,1.5 -1.7551,0 -1.7551,0 -1.2449,1.5 -1.2449,1.5 -1.7551,0 -1.7551,0 -1.2449,1.5 -1.2449,1.5 -1.8942,0 -1.8942,0 -10.9667,5.5 -10.9667,5.5 -2.8423,0 -2.8424,0 -2.3486,2.5 c -1.2917,1.375 -2.8901,2.5 -3.5519,2.5 -0.6618,0 -1.7634,0.675 -2.4481,1.5 l -1.2449,1.5 -1.7551,0 -1.7551,0 -1.2449,1.5 -1.2449,1.5 -1.842,0 -1.8421,0 -11.9097,6 c -6.5503,3.3 -12.3611,6 -12.913,6 -0.5519,0 -1.5812,0.6962 -2.2874,1.5471 -0.7062,0.851 -3.6773,2.6794 -6.6025,4.0632 -2.9251,1.3838 -5.579,2.9376 -5.8974,3.4529 l -0.579,0.9368 -3.4084,0 -3.4084,0 -11.6357,6.0366 -11.6357,6.0366 -6.6469,-0.2185 -6.6469,-0.2184 -2.5,1.3687 -2.5,1.3686 -5.558,-0.2056 -5.5581,-0.2056 -2.3662,2.5188 -2.3663,2.5188 -17.5113,0 -17.5112,0 -2.3604,-2.2174 -2.3603,-2.2175 -5.8355,-0.1839 -5.8354,-0.1838 -2.075,-1.1106 -2.075,-1.1105 -5.1864,-0.4309 -5.1865,-0.431 -1.0572,-1.0572 -1.0572,-1.0572 -5.05,-0.035 -5.05,-0.035 -2.5,-1.4291 -2.5,-1.4291 -44.0589,-0.035 -44.0588,-0.035 -1.9412,1.4682 -1.9411,1.4682 -16.6279,0.032 -16.6279,0.032 -3.71,1.5502 -3.7101,1.5501 -14.733,-0.1811 -14.733,-0.1812 -2.3306,1.2473 -2.3305,1.2472 -17.7164,-0.1628 -17.7164,-0.1629 -3.0265,2.5466 -3.0264,2.5466 -26.7113,0 -26.71129,0 -3.04387,-2.5613 -3.04388,-2.5612 -14.60048,0.2307 -14.60048,0.2307 -2.43972,-1.3062 -2.43972,-1.3061 -13.76022,0.1882 -13.76022,0.1883 -3.0004,-1.5515 -3.0004,-1.5516 -160.92754,0 -160.92753,0 -3.59001,1.5 -3.59,1.5 -9.83212,0 -9.83212,0 -1.20547,1.2055 -1.20546,1.2054 -6.31849,-0.2333 -6.31849,-0.2332 -2.72757,2.5278 -2.72756,2.5278 -19.77417,0 z m 5727.43121,0 -33.216,0 -1.4043,-2.6239 -1.4043,-2.624 -9.089,0.4754 -9.089,0.4754 -2.0885,-1.6911 -2.0885,-1.6912 -7.8686,0.4556 -7.8686,0.4555 -1.3411,-1.6159 -1.341,-1.6158 -7.6864,0 -7.6864,0 -1.9412,-1.4682 -1.9411,-1.4682 -15.55,-0.032 -15.55,-0.032 -1.225,1.225 -1.2249,1.2249 -1.8898,-1.1802 -1.8897,-1.1801 -1.2078,1.4552 -1.2077,1.4552 -77.2551,0 -77.2551,0 -1.2449,-1.5 -1.2449,-1.5 -1.7551,0 -1.7551,0 -1.2449,-1.5 -1.2449,-1.5 -2.9836,0 -2.9837,0 -3.7878,-3 -3.7878,-3 -3.1156,0 -3.1156,0 -2.7405,-3.962 -2.7405,-3.9621 -2.7699,-0.038 -2.7698,-0.038 -3.9603,-2.5 -3.9603,-2.5 -2.8327,0 -2.8328,0 -2.8742,-3 -2.8742,-3 -3.1904,0 -3.1905,0 -1.2449,-1.5 -1.2449,-1.5 -2.2551,0 -2.2551,0 -1.2449,-1.5 -1.2449,-1.5 -1.7086,0 -1.7085,0 -1.338,-2.5 -1.338,-2.5 -1.7085,0 -1.7086,0 -1.2449,-1.5 -1.2449,-1.5 -2.8185,0 -2.8186,0 -0.618,-1 -0.618,-1 -1.8186,0 -1.8185,0 -1.2449,-1.5 -1.2449,-1.5 -1.7551,0 -1.7551,0 -1.2449,-1.5 -1.2449,-1.5 -1.7551,0 -1.7551,0 -1.2449,-1.5 -1.2449,-1.5 -2.2551,0 -2.2551,0 -1.2449,-1.5 -1.2449,-1.5 -3.387,0 -3.3871,0 -2.7405,-3.962 -2.7405,-3.9621 -2.7699,-0.038 -2.7698,-0.038 -3.9603,-2.5 -3.9603,-2.5 -2.8327,0 -2.8328,0 -2.8742,-3 -2.8742,-3 -3.1904,0 -3.1905,0 -1.2449,-1.5 -1.2449,-1.5 -2.2551,0 -2.2551,0 -1.2449,-1.5 -1.2449,-1.5 -1.7551,0 -1.7551,0 -1.2449,-1.5 -1.2449,-1.5 -1.7086,0 -1.7085,0 -1.338,-2.5 -1.338,-2.5 -1.7089,0 c -0.9398,0 -3.2679,-0.6514 -5.1734,-1.4476 l -3.4646,-1.4476 -2.0952,0.548 -2.0953,0.5479 -2.2848,-1.6004 -2.2848,-1.6003 -4.5864,0 -4.5863,0 -1.9412,-1.4682 -1.9411,-1.4682 -18.0589,-0.032 -18.0588,-0.032 -1.8917,-1.3832 -1.8917,-1.3833 -1.7377,1.0853 -1.7378,1.0852 -2.5617,-1.371 -2.5617,-1.371 -2.5202,1.3488 -2.5202,1.3488 -1.1798,-1.1798 -1.1798,-1.1798 -78.6089,0 -78.6088,0 -1.9412,1.4682 -1.9411,1.4682 -8.1357,0.032 -8.1357,0.032 -2.8643,1.4938 -2.8643,1.4939 -8.2852,0.01 -8.2852,0.01 -2.4877,1.63 -2.4878,1.6301 -7.3942,-0.4746 -7.3943,-0.4745 -3.3328,1.4063 -3.3328,1.4063 -37.3734,-0.093 -37.3734,-0.093 -2.1266,-1.1427 -2.1266,-1.1427 -13.6777,0.2366 -13.6778,0.2366 -3.0226,-1.563 -3.0226,-1.5631 -10.3585,0 -10.3585,0 -1.9412,-1.4682 -1.9411,-1.4682 -9.0589,-0.032 -9.0588,-0.032 -1.9412,-1.4682 -1.9411,-1.4682 -33.0757,-0.032 -33.0757,-0.032 -2.2341,-2.3781 -2.234,-2.378 0.3097,-4.872 0.3098,-4.8719 4.4619,-2.25 4.4619,-2.25 35.0381,0.035 35.0381,0.035 2.5,1.4291 2.5,1.4291 10,0.042 10,0.042 2.8643,1.4939 2.8643,1.4938 7.2636,0 7.2636,0 3.59,1.5 3.59,1.5 22.5419,0 22.5419,0 1.7124,2 1.7125,2 17.2693,0 17.2693,0 1.249,-2 1.249,-2 13.0094,-0.035 13.0095,-0.035 2.5,-1.4291 2.5,-1.4291 7.5589,-0.035 7.5588,-0.035 1.9412,-1.4682 1.9411,-1.4682 9.6276,-0.032 9.6275,-0.032 1.2449,-1.5 1.2449,-1.5 105.2551,0 105.2551,0 1.2449,1.5 1.2449,1.5 8.2551,0 8.2551,0 1.2449,1.5 1.2449,1.5 6.2551,0 6.2551,0 1.2449,1.5 1.2449,1.5 3.8424,0 3.8423,0 1.0704,2 1.0704,2 2.305,0 2.3051,0 5.4097,2.9819 5.4098,2.9819 2.1276,0.018 2.1275,0.018 1.2449,1.5 1.2449,1.5 1.7551,0 1.7551,0 1.2449,1.5 1.2449,1.5 1.7551,0 1.7551,0 1.2449,1.5 1.2449,1.5 1.6275,0.032 c 0.8952,0.017 2.5011,0.6925 3.5687,1.5 l 1.9412,1.4682 1.8402,0 1.8403,0 0.5373,1.4002 0.5373,1.4001 9.8588,5.0999 9.8589,5.0998 3.45,0 3.45,0 1.2449,1.5 1.2449,1.5 1.7551,0 1.7551,0 1.2449,1.5 1.2449,1.5 1.7551,0 1.7551,0 1.2449,1.5 1.2449,1.5 1.5618,0 c 0.859,0 3.5039,0.9401 5.8776,2.0892 2.3736,1.1491 4.3157,2.456 4.3157,2.9043 0,0.4482 3.1267,2.4331 6.9483,4.4108 l 6.9483,3.5957 1.9292,0 1.9293,0 1.2449,1.5 1.2449,1.5 1.7551,0 1.7551,0 1.2449,1.5 1.2449,1.5 1.7551,0 1.7551,0 1.2449,1.5 1.2449,1.5 1.6275,0.032 c 0.8952,0.017 2.5011,0.6925 3.5687,1.5 1.0677,0.8075 2.7001,1.4682 3.6276,1.4682 l 1.6864,0 1.2449,1.5 1.2449,1.5 1.9089,0 1.909,0 0.5562,1.4496 0.5563,1.4496 6.8606,3.5504 6.8607,3.5504 1.9292,0 1.9293,0 1.2449,1.5 1.2449,1.5 3.2551,0 3.2551,0 1.2449,1.5 1.2449,1.5 1.7551,0 1.7551,0 1.2449,1.5 1.2449,1.5 2.2551,0 2.2551,0 1.2449,1.5 1.2449,1.5 37.7551,0 37.7551,0 1.2449,-1.5 1.2449,-1.5 58.2551,0 58.2551,0 1.2449,1.5 1.2449,1.5 8.3424,0 8.3423,0 1.0704,2 1.0704,2 7.2148,0.032 7.2148,0.032 1.9411,1.4682 1.9412,1.4682 67.5588,-0.032 67.5589,-0.032 1.9411,-1.4682 1.9412,-1.4682 7.8004,0 7.8004,0 1.249,-2 1.249,-2 8.137,0 8.137,0 1.2449,-1.5 1.2449,-1.5 53.2551,0 53.2551,0 1.2449,-1.5 1.2449,-1.5 3.4316,0 3.4316,0 5.3919,-3 5.3919,-3 2.304,-0.032 2.3041,-0.032 1.9411,-1.4682 1.9412,-1.4682 14.3287,0 14.3287,0 3.8799,-2.4493 c 2.134,-1.3471 4.0375,-2.8096 4.2302,-3.25 0.1926,-0.4404 2.3752,-1.7913 4.8502,-3.0021 2.475,-1.2107 6.0499,-3.3482 7.9443,-4.75 1.8943,-1.4017 3.953,-2.5486 4.5748,-2.5486 0.6218,0 6.4632,-2.7 12.9809,-6 6.5177,-3.3 12.3768,-6 13.0202,-6 0.6434,0 1.8891,-0.7948 2.7683,-1.7662 0.8791,-0.9715 4.4363,-3.1671 7.9049,-4.8792 3.4686,-1.712 8.3316,-3.8394 10.8066,-4.7274 l 4.5,-1.6145 3,-2.597 3,-2.5971 6.2083,-2.9093 c 3.4146,-1.6001 6.6425,-2.9093 7.1733,-2.9093 0.5307,0 2.237,-1.067 3.7917,-2.3711 1.5547,-1.304 8.1108,-5.129 14.5692,-8.5 l 11.7425,-6.1289 1.6255,0 1.6255,0 3.4168,-3 3.4168,-3 3.3102,0 3.3102,0 1.81,-2 1.81,-2 6.645,0 6.645,0 0.95,-0.924 c 0.5225,-0.5082 3.425,-1.8579 6.45,-2.9995 l 5.5,-2.0755 3.6276,-5e-4 3.6275,-5e-4 1.2449,-1.5 1.2449,-1.5 95.1864,0 95.1864,0 1.9412,1.4682 1.9411,1.4682 7.5,0.067 7.5,0.067 2.5,1.4291 2.5,1.4291 14.5,0.071 14.5,0.071 2.5,1.4291 2.5,1.4291 58,0 58,0 2.5,-1.4291 2.5,-1.4291 9,-0.067 9,-0.067 1.9411,-1.4682 1.9412,-1.4682 10.5588,-0.035 10.5589,-0.035 2.5,-1.4291 2.5,-1.4291 54.0589,-0.035 54.0588,-0.035 1.9412,1.4682 1.9411,1.4682 12,0.067 12,0.067 2.5,1.4291 2.5,1.4291 15,0 15,0 2.5,-1.4291 2.5,-1.4291 19,-0.071 19,-0.071 2.5,-1.4291 2.5,-1.4291 10.05,-0.035 10.05,-0.035 1.2,-1.2 1.2,-1.2 0,-21.693 0,-21.693 1.5818,-0.607 1.5818,-0.607 12.2182,0 12.2182,0 1.2488,-1.25 1.2488,-1.25 35.2012,-0.5 35.2012,-0.5 0.5483,-22.5 c 0.3016,-12.375 0.6391,-22.5795 0.75,-22.6768 0.1109,-0.097 1.6642,-0.9972 3.4517,-2 l 3.25,-1.8232 121,-0.5 121,-0.5 0.5321,-35.5 c 0.2927,-19.525 0.6302,-35.6125 0.75,-35.75 0.1198,-0.1375 10.9628,-0.25 24.0955,-0.25 l 23.8775,0 1.2449,1.5 1.2449,1.5 9.7551,0 9.7551,0 1.2449,1.5 1.2449,1.5 19.2551,0 19.2551,0 1.2449,1.5 1.2449,1.5 28.2551,0 28.2551,0 1.2449,-1.5 1.2449,-1.5 14.2551,0 14.2551,0 1.2449,-1.5 1.2449,-1.5 6.7551,0 6.7551,0 1.2449,-1.5 1.2449,-1.5 9.7551,0 9.7551,0 1.2449,-1.5 1.2449,-1.5 44.2551,0 44.2551,0 1.2449,1.5 1.2449,1.5 9.7551,0 9.7551,0 1.2449,1.5 1.2449,1.5 45.6275,-0.032 45.6276,-0.032 1.9411,-1.4682 1.9412,-1.4682 12.0588,-0.032 12.0589,-0.032 1.9411,-1.4682 1.9412,-1.4682 10.6345,0 10.6346,0 2.1743,2.3145 2.1743,2.3144 0,5.963 0,5.9631 -1.5479,2.2099 -1.5478,2.2099 0.4204,15.7626 c 0.2312,8.6694 0.737,17.3376 1.124,19.2626 0.387,1.925 1.0069,6.875 1.3775,11 l 0.6738,7.5 8.6588,0.2876 8.6587,0.2876 1.2137,1.4624 1.2137,1.4624 11.2551,0 11.2551,0 1.2449,1.5 1.2449,1.5 54.6275,-0.032 54.6276,-0.032 1.9411,-1.4682 1.9412,-1.4682 6.1864,0 6.1864,0 1.2449,-1.5 1.2449,-1.5 59.1275,0.043 59.1276,0.043 4,2.2902 4,2.2902 0.3123,4.8502 c 0.1718,2.6676 0.051,5.8925 -0.2691,7.1664 l -0.5813,2.3163 -4.8585,0 -4.8585,0 -1.2449,1.5 -1.2449,1.5 -61.2551,0 -61.2551,0 -1.2449,1.5 -1.2449,1.5 -8.2551,0 -8.2551,0 -1.2449,1.5 -1.2449,1.5 -40.6864,0 -40.6864,0 -1.9412,-1.4682 -1.9411,-1.4682 -10.5589,-0.032 -10.5588,-0.032 -1.9412,-1.4682 -1.9411,-1.4682 -14.1276,-0.032 -14.1275,-0.032 -1.2449,-1.5 -1.2449,-1.5 -8.305,0 -8.3049,0 -2.0726,-2.6349 -2.0726,-2.6348 0,-1.6427 c 0,-0.9034 -0.6681,-2.5965 -1.4847,-3.7623 l -1.4848,-2.1198 -0.2652,-29.3527 -0.2653,-29.3528 -10.0999,-0.2833 -10.0999,-0.2834 -1.2725,1.5334 -1.2726,1.5333 -12.7551,0 -12.7551,0 -1.2449,1.5 -1.2449,1.5 -19.2551,0 -19.2551,0 -1.2658,-1.5252 -1.2659,-1.5253 -1.7132,1.5505 -1.7132,1.5505 -1.2659,-1.5253 -1.2658,-1.5252 -19.2551,0 -19.2551,0 -1.2449,-1.5 -1.2449,-1.5 -9.7551,0 -9.7551,0 -1.2449,-1.5 -1.2449,-1.5 -18.7551,0 -18.7551,0 -1.2449,1.5 -1.2449,1.5 -27.2551,0 -27.2551,0 -1.2449,1.5 -1.2449,1.5 -6.2551,0 -6.2551,0 -1.2449,1.5 -1.2449,1.5 -8.2551,0 -8.2551,0 -1.2449,1.5 -1.2449,1.5 -15.2632,0 -15.2633,0 -2.8643,1.4938 -2.8643,1.4939 -3.2852,0.01 -3.2852,0.01 -2.3863,-1.5636 -2.3863,-1.5636 -25.9314,0.093 -25.9313,0.093 -1.2696,-1.5298 -1.2696,-1.5297 -11.7551,0 -11.7551,0 -1.2611,-1.5195 -1.261,-1.5195 -21.1114,0.2695 -21.1114,0.2695 -0.5,32.1466 -0.5,32.1465 -1.8934,2.0906 -1.8934,2.0907 -110.6066,0.3564 -110.6066,0.3565 -4,0.72 c -2.2,0.3959 -7.5994,0.9541 -11.9987,1.2403 l -7.9987,0.5203 -1.281,1.0631 -1.281,1.0632 0.1,21.3352 0.1,21.3353 -0.6289,1.0177 -0.6289,1.0176 -4.3186,0 -4.3185,0 -1.2449,1.5 -1.2449,1.5 -40.7958,0 -40.7957,0 -1.6188,0.6212 -1.6188,0.6212 -1.4813,2.8646 -1.4814,2.8647 0.257,18.1116 0.2571,18.1117 -2.3495,1.9025 -2.3495,1.9025 -9.1981,0 -9.198,0 -1.9412,1.4682 -1.9411,1.4682 -20,0.067 -20,0.067 -2.5,1.4291 -2.5,1.4291 -29,0 -29,0 -2.5,-1.4291 -2.5,-1.4291 -70,0 -70,0 -2.5,1.4291 -2.5,1.4291 -8.7997,0.035 -8.7996,0.035 -3.135,1.6212 -3.135,1.6211 -6.6999,-0.4794 -6.6999,-0.4793 -3.3004,1.3877 -3.3005,1.3877 -36.891,0.03 -36.8911,0.03 -1.3777,-1.1433 -1.3776,-1.1434 -25.9962,-0.1659 -25.9962,-0.166 -1.2501,-1.25 -1.2501,-1.25 -8.05,-0.035 -8.05,-0.035 -2.5,-1.4291 -2.5,-1.4291 -7.2852,-0.035 -7.2852,-0.035 -2.3181,-1.5189 -2.3182,-1.519 -48.3967,0.4198 -48.3966,0.4198 -4.5,0.6909 -4.5,0.691 -40,0.6608 -40,0.6609 -5.3127,2.868 -5.3126,2.868 -3.5689,-0.5791 -3.5688,-0.5791 -3.6185,1.5654 -3.6185,1.5655 -3.0807,-0.07 -3.0807,-0.07 -4.3793,3.9632 -4.3793,3.9632 -2.908,0 -2.908,0 -3.3,2.8975 -3.3001,2.8975 -5.5596,2.0801 c -3.0578,1.1441 -9.1798,3.9003 -13.6044,6.125 -4.4246,2.2246 -8.9347,4.9347 -10.0223,6.0223 L 6615,1462 l -1.8129,0 -1.8129,0 -2.8742,3 -2.8742,3 -3.1258,0 -3.1258,0 -2.8742,3 -2.8742,3 -3.7362,0 -3.7361,0 -2.8268,2.3658 c -1.5547,1.3012 -5.105,3.5161 -7.8895,4.922 -2.7846,1.4059 -5.6522,3.2663 -6.3725,4.1342 -0.7203,0.8679 -1.7943,1.578 -2.3868,1.578 -0.5924,0 -6.0498,2.435 -12.1275,5.4111 -6.0777,2.976 -14.7925,7.1109 -19.3661,9.1885 l -8.3157,3.7775 -0.9695,1.8114 -0.9695,1.8115 -3.2737,0 -3.2736,0 -1.9412,1.4682 -1.9411,1.4682 -12.6276,0.032 -12.6275,0.032 -1.2449,1.5 -1.2449,1.5 -3.2551,0 -3.2551,0 -1.2449,1.5 -1.2449,1.5 -3.6864,0 -3.6864,0 -1.9412,1.4682 -1.9411,1.4682 -49.5589,0.032 -49.5588,0.032 -1.9412,1.4682 -1.9411,1.4682 -9.6276,0.032 -9.6275,0.032 -1.2625,1.5212 -1.2625,1.5212 -7.8017,-0.1919 -7.8018,-0.192 -1.475,1.2242 -1.4751,1.2242 -30.5443,-0.078 -30.5443,-0.077 -1.6539,2.5241 -1.6538,2.5241 -33.216,0 z m 7601.667,0 -35.991,0 -1.638,-2.5 -1.638,-2.5 -20.043,0 -20.042,0 -2.177,-1.1646 -2.176,-1.1646 -9.508,0.185 -9.508,0.1851 -2.864,-1.5205 -2.865,-1.5204 -13.763,0 -13.763,0 -1.245,-1.5 -1.245,-1.5 -48.755,0 -48.755,0 -1.245,-1.5 -1.245,-1.5 -6.755,0 -6.755,0 -1.245,-1.5 -1.245,-1.5 -4.755,0 -4.755,0 -1.245,-1.5 -1.245,-1.5 -5.255,0 -5.255,0 -1.245,-1.5 -1.245,-1.5 -4.484,0 -4.483,0 -2.039,-2.5924 -2.04,-2.5925 -3.604,0.4511 -3.605,0.451 -2.982,-1.5042 -2.982,-1.5042 -2.938,0.084 -2.937,0.083 -2.781,-1.438 -2.781,-1.4379 -4.862,0 -4.863,0 -2.874,-3 -2.874,-3 -4.122,0 -4.122,0 -1.941,-1.4682 -1.941,-1.4682 -5.128,-0.032 -5.127,-0.032 -1.245,-1.5 c -0.685,-0.825 -1.811,-1.5 -2.504,-1.5 l -1.259,0 -2.669,-3.5 -2.67,-3.5 -1.699,-0.01 c -0.934,0 -2.988,-0.6783 -4.563,-1.5 l -2.865,-1.4938 -2.309,0 -2.309,0 -3.133,-2.6369 c -1.724,-1.4502 -4.779,-3.4752 -6.788,-4.5 -2.01,-1.0247 -4.347,-1.8774 -5.193,-1.8949 -0.847,-0.017 -2.413,-0.6925 -3.48,-1.5 l -1.941,-1.4682 -2.687,0 -2.686,0 -1.245,-1.5 c -0.685,-0.825 -1.811,-1.5 -2.504,-1.5 l -1.259,0 -2.494,-3.25 -2.494,-3.25 -3.874,-1.3441 c -2.131,-0.7393 -6.052,-1.6393 -8.712,-2 l -4.837,-0.6559 -1.197,-2.2476 -1.197,-2.2477 -3.927,-2.0023 -3.928,-2.0024 -4.666,0 -4.666,0 -1.245,-1.5 -1.245,-1.5 -5.186,0 -5.187,0 -1.941,-1.4682 -1.941,-1.4682 -3.856,-0.032 -3.856,-0.032 -1.937,-2.4626 -1.937,-2.4627 -4.207,0.053 -4.207,0.053 -3.694,-1.5804 -3.694,-1.5804 -1.466,0.5624 -1.465,0.5624 -3.041,-1.5723 -3.041,-1.5724 -3.799,-0.01 -3.8,-0.01 -2.864,-1.4939 -2.865,-1.4938 -3.694,0 -3.695,0 -1.941,-1.4682 -1.941,-1.4682 -5,-0.064 -5,-0.064 -1.941,-1.4682 -1.941,-1.4682 -21.059,0.035 -21.059,0.035 -2.5,1.4291 -2.5,1.4291 -67.146,0.035 -67.147,0.035 -7.353,2.9966 -7.354,2.9965 -2.527,0 -2.528,0 -2.579,2.75 c -1.419,1.5125 -3.993,3.9795 -5.721,5.4822 -1.728,1.5028 -5.377,3.8653 -8.11,5.25 -2.733,1.3848 -5.797,2.5178 -6.811,2.5178 l -1.842,0 -1.941,1.4682 -1.941,1.4682 -5.027,0.032 -5.028,0.032 -1.972,1.3697 -1.973,1.3698 -6.5,0.6538 c -3.575,0.3596 -7.175,0.6487 -8,0.6425 -0.825,-0.01 -2.793,-0.1294 -4.373,-0.2736 l -2.874,-0.2622 -1.126,2 c -0.62,1.1 -1.19,2.1381 -1.267,2.3069 -0.08,0.1688 -1.958,0.4732 -4.179,0.6765 -2.221,0.2033 -4.94,0.8527 -6.044,1.4431 l -2.006,1.0735 -5.489,0 -5.489,0 -2.971,2.5 -2.971,2.5 -3.671,0 -3.671,0 -2.185,1.2415 -2.184,1.2415 -7.397,0.5085 -7.397,0.5085 -1.103,2 c -0.607,1.1 -1.553,2.3306 -2.103,2.7347 l -1,0.7347 -11.55,0.015 -11.55,0.015 -1.205,-1.2045 -1.204,-1.2046 -4.746,-0.5454 -4.745,-0.5455 -0.299,-6.9105 -0.3,-6.9105 1.3,-0.8242 1.299,-0.8242 11.559,-0.015 11.559,-0.015 1.941,-1.4682 1.941,-1.4682 5,-0.067 5,-0.067 2.5,-1.4291 2.5,-1.4291 3.5,-0.067 3.5,-0.067 1.941,-1.4682 1.941,-1.4682 5.559,-0.033 5.559,-0.033 5,-1.7401 c 2.75,-0.9571 5.571,-2.0992 6.269,-2.538 0.698,-0.4388 3.594,-0.9911 6.435,-1.2272 l 5.167,-0.4293 2.129,-2.0001 2.129,-2 3.485,0 3.486,0 1.097,-1.0968 1.097,-1.0969 5.853,-0.7868 c 3.219,-0.4327 7.428,-1.3529 9.353,-2.0449 1.925,-0.692 5.3,-1.9069 7.5,-2.6997 2.2,-0.7928 4.934,-1.9665 6.077,-2.6082 1.142,-0.6417 3.566,-2.0667 5.387,-3.1667 1.821,-1.1 5.278,-3.4625 7.682,-5.25 l 4.371,-3.25 2.915,0 2.915,0 2.826,-2.3633 c 1.555,-1.2999 4.722,-3.3249 7.037,-4.5 l 4.21,-2.1367 73.418,0 73.418,0 3.59,-1.5 3.59,-1.5 19.782,0.035 19.782,0.035 2.5,1.4291 2.5,1.4291 6.059,0.035 6.059,0.035 1.941,1.4682 1.941,1.4682 4.5,0.038 4.5,0.038 2.864,1.4939 2.865,1.4938 3.635,0.032 3.636,0.032 1.941,1.4682 1.941,1.4682 4.319,0 4.319,0 1.712,2 1.712,2 3.528,0.035 3.528,0.035 2.5,1.4291 2.5,1.4291 4,0.042 4,0.042 2.864,1.4939 2.865,1.4938 3.694,0 3.695,0 1.941,1.4682 1.941,1.4682 5.128,0.032 5.127,0.032 1.202,1.4485 1.202,1.4484 4.663,0.3016 4.662,0.3015 1.313,2.75 1.312,2.75 3.291,0 3.29,0 1.81,2 1.81,2 1.885,0 c 1.036,0 3.779,0.9615 6.095,2.1367 2.315,1.1751 5.437,3.162 6.936,4.4152 l 2.726,2.2787 3.013,0.6616 c 1.656,0.3639 3.269,1.0771 3.583,1.5847 l 0.57,0.9231 3.319,0 3.318,0 1.245,1.5 c 0.685,0.825 1.803,1.5 2.485,1.5 0.682,0 2.939,1.35 5.015,3 2.076,1.65 4.318,3 4.983,3 0.664,0 2.022,0.9 3.017,2 l 1.81,2 2.288,0 2.288,0 3.807,2.1912 c 2.094,1.2052 5.079,3.2302 6.634,4.5 l 2.826,2.3088 2.301,0 2.301,0 1.245,1.5 1.245,1.5 3.318,0 3.319,0 0.565,0.9135 c 0.31,0.5024 2.504,1.8524 4.874,3 l 4.31,2.0865 4.494,0 4.493,0 1.941,1.4682 1.941,1.4682 3.595,0.032 3.595,0.032 1.81,2 1.81,2 4.654,0 4.654,0 1.941,1.4682 1.941,1.4682 3.5,0.067 3.5,0.067 2.5,1.4291 2.5,1.4291 5.128,0.035 5.127,0.035 1.245,1.5 1.245,1.5 4.127,0.032 4.128,0.032 1.941,1.4682 1.941,1.4682 5.187,0 5.186,0 1.245,1.5 1.245,1.5 51.755,0 51.755,0 1.245,1.5 1.245,1.5 10.722,0 10.723,0 1.81,2 1.81,2 10.154,0 10.154,0 1.941,1.4682 1.941,1.4682 20.5,0.064 20.5,0.064 1.941,1.4682 1.941,1.4682 33.187,0 33.186,0 1.245,-1.5 1.245,-1.5 14.127,-0.032 14.128,-0.032 1.941,-1.4682 1.941,-1.4682 10.774,0 10.774,0 1.07,-2 1.07,-2 10.743,0 10.742,0 2.149,-1.5054 2.149,-1.5053 89.824,0.2553 89.823,0.2554 0,9 0,9 -83.632,0.2557 -83.633,0.2557 -1.24,1.4943 -1.24,1.4943 -11.255,0 -11.255,0 -1.274,1.5347 -1.274,1.5348 -15.25,-0.1226 -15.25,-0.1226 -2.349,1.2734 -2.348,1.2734 -12.119,-0.2599 -12.119,-0.2599 -2.025,2.5744 -2.025,2.5743 -35.991,0 z m -10972.9978,-10.0354 -36.7232,-0.035 -2.5,-1.4291 -2.5,-1.4291 -29.5589,-0.035 -29.5588,-0.035 -1.9412,-1.4682 -1.9411,-1.4682 -4,-0.064 -4,-0.064 -1.9411,-1.4682 -1.9412,-1.4682 -5.1864,0 -5.1864,0 -1.2449,-1.5 -1.2449,-1.5 -4.1275,-0.035 -4.1276,-0.035 -2.5,-1.4291 -2.5,-1.4291 -3.2148,-0.035 -3.2148,-0.035 -1.0704,-2 -1.0704,-2 -1.7148,-8e-4 c -0.9431,-4e-4 -4.5677,-1.3504 -8.0546,-3 l -6.3398,-2.9992 -2.421,0 -2.4209,0 -8.5321,-4.5 -8.5321,-4.5 -2.977,0 -2.977,0 -3.8961,-2.4595 c -2.1428,-1.3527 -4.1862,-2.9289 -4.5408,-3.5026 -0.3546,-0.5737 -2.5299,-1.8814 -4.834,-2.9058 -2.3042,-1.0245 -6.3416,-2.665 -8.9721,-3.6457 -2.6304,-0.9807 -5.0195,-2.1663 -5.309,-2.6347 l -0.5263,-0.8517 -2.4951,0 -2.495,0 -5.3919,-3 -5.3919,-3 -1.9316,0 -1.9316,0 -1.2449,-1.5 -1.2449,-1.5 -3.2935,0 -3.2935,0 -3.1681,-4 -3.1681,-4 -2.9263,0 -2.9263,0 -8.1003,-4 -8.1003,-4 -4.1982,0 -4.1982,0 -1.9412,-1.4682 -1.9411,-1.4682 -4.0589,-0.032 -4.0588,-0.032 -1.9412,-1.4682 -1.9411,-1.4682 -3.0589,-0.032 -3.0588,-0.032 -1.9412,-1.4682 -1.9411,-1.4682 -4.6276,-0.032 -4.6275,-0.032 -1.2449,-1.5 -1.2449,-1.5 -4.8386,0 -4.8386,0 -1.7889,-1.8429 -1.789,-1.8429 -5.4844,-1.7541 c -3.0164,-0.9647 -6.8884,-1.8845 -8.6045,-2.044 -1.7161,-0.1595 -4.056,-0.7909 -5.1999,-1.4031 l -2.0797,-1.113 -4.3746,0 -4.3746,0 -1.9412,-1.4682 -1.9411,-1.4682 -2.5,-0.064 -2.5,-0.064 -1.9411,-1.4682 -1.9412,-1.4682 -36.5588,0.032 -36.5589,0.032 -1.9411,1.4682 -1.9412,1.4682 -4.0588,0.032 -4.0589,0.032 -1.9411,1.4682 -1.9412,1.4682 -4.3585,0 -4.3585,0 -3.0889,1.5973 -3.0888,1.5973 -2.9237,-0.5847 -2.9237,-0.5848 -3.4675,1.4489 -3.4676,1.4488 -26.3719,0.1264 -26.3719,0.1264 -2.3484,-1.2592 -2.3483,-1.2593 -14.2398,0.2353 -14.2398,0.2353 -2.2327,-1.5639 -2.2327,-1.5638 -15.0275,-0.032 -15.0275,-0.032 -1.9411,-1.4682 -1.9412,-1.4682 -39.6864,0 -39.6864,0 -1.2449,1.5 -1.2449,1.5 -14.2551,0 -14.2551,0 -1.2449,1.5 -1.2449,1.5 -19.2551,0 -19.2551,0 -1.2449,-1.5 -1.2449,-1.5 -14.2551,0 -14.2551,0 -1.2449,-1.5 -1.2449,-1.5 -12.7551,0 -12.7551,0 -1.2449,-1.5 -1.2449,-1.5 -5.2032,0 -5.2033,0 -2.2309,-2.3747 -2.2309,-2.3747 0.3066,-5.3753 0.3066,-5.3753 2.1774,-0.31 2.1774,-0.3101 1.195,-1.4399 1.1951,-1.44 9.7551,0 9.7551,0 1.2449,1.5 1.2449,1.5 12.7551,0 12.7551,0 1.2449,1.5 1.2449,1.5 13.1275,0.032 13.1276,0.032 1.9411,1.4682 1.9412,1.4682 7.1864,0 7.1864,0 1.2449,-1.5 1.2449,-1.5 14.7551,0 14.7551,0 1.2449,-1.5 1.2449,-1.5 14.2551,0 14.2551,0 1.2449,-1.5 1.2449,-1.5 19.2551,0 19.2551,0 1.2449,1.5 1.2449,1.5 15.7551,0 15.7551,0 1.2449,1.5 1.2449,1.5 16.1864,0 16.1864,0 1.9412,1.4682 1.9411,1.4682 16.5095,0.032 16.5094,0.032 1.249,2 1.249,2 16.3366,0 16.3365,0 1.81,-2 1.81,-2 4.2225,0 4.2226,0 1.2449,-1.5 1.2449,-1.5 4.6275,-0.035 4.6276,-0.035 2.5,-1.4291 2.5,-1.4291 4.1276,-0.035 4.1275,-0.035 1.2449,-1.5 1.2449,-1.5 44.2551,0 44.2551,0 1.2449,1.5 1.2449,1.5 6.1551,0 6.1551,0 5.7823,3 5.7822,3 3.6996,0 3.6997,0 1.249,2 1.249,2 4.5873,0 4.5872,0 2.6543,1.3614 c 1.4599,0.7487 4.2293,1.9319 6.1543,2.6294 1.925,0.6974 6.0809,1.5632 9.2354,1.924 l 5.7355,0.6561 1.2145,1.2145 1.2146,1.2146 4.1089,0 4.1088,0 1.9412,1.4682 1.9411,1.4682 5,0.064 5,0.064 1.9411,1.4682 1.9412,1.4682 2.6864,0 2.6864,0 1.2449,1.5 1.2449,1.5 3.3775,0 3.3776,0 1.7906,1.7906 c 0.9849,0.9849 5.8938,3.9099 10.9089,6.5 l 9.1182,4.7094 2.5781,0 2.578,0 10.7631,5.4009 c 5.9197,2.9705 11.8881,5.7351 13.2631,6.1435 l 2.5,0.7425 1.3067,1.8566 1.3067,1.8565 1.9244,0 1.9243,0 6.769,3.1057 c 3.7229,1.7081 9.4867,4.4081 12.8084,6 l 6.0396,2.8943 2.0193,0 2.0193,0 1.9412,1.4682 c 1.0676,0.8075 2.5324,1.4825 3.2552,1.5 0.7227,0.017 3.6687,1.1088 6.5466,2.4252 2.8779,1.3164 6.6265,3.5664 8.3302,5 l 3.0978,2.6066 1.8557,0.035 c 1.0206,0.02 2.9806,0.6786 4.3556,1.4646 l 2.5,1.4291 2.5,0.042 2.5,0.042 2.8643,1.4939 2.8643,1.4938 3.6357,0.032 3.6357,0.032 1.9411,1.4682 1.9412,1.4682 4.6177,0 4.6177,0 1.9412,1.4682 1.9411,1.4682 6,0.067 6,0.067 2.5,1.4291 2.5,1.4291 48.0589,0.035 48.0588,0.035 1.9412,1.4682 1.9411,1.4682 3.5,0 3.5,0 1.9411,-1.4682 1.9412,-1.4682 5.1088,0 5.1089,0 1.1762,-1.1762 1.1763,-1.1763 4.7737,-0.7099 4.7738,-0.7099 5.5,-2.2002 c 3.025,-1.2102 6.9459,-2.5603 8.713,-3.0002 1.7672,-0.44 4.6906,-1.663 6.4966,-2.7177 l 3.2836,-1.9177 2.3184,-3.446 2.3185,-3.4459 3.5087,-1.2232 c 1.9298,-0.6728 4.8232,-2.3292 6.4296,-3.6809 1.6064,-1.3517 3.7785,-2.7299 4.8268,-3.0626 l 1.906,-0.605 0.6036,-2.2141 0.6036,-2.2142 6.4958,-6.9026 c 3.5727,-3.7964 6.4958,-7.2757 6.4958,-7.7318 0,-0.4561 1.5973,-2.4739 3.5495,-4.4842 1.9521,-2.0102 4.4271,-5.3755 5.5,-7.4783 l 1.9505,-3.8234 0,-2.7241 0,-2.7242 2.0865,-4.3101 c 1.1476,-2.3706 2.4976,-4.5643 3,-4.8748 l 0.9135,-0.5645 0,-2.7667 0,-2.7667 2.595,-2.4243 c 1.4273,-1.3334 3.2273,-3.6395 4,-5.1246 0.7728,-1.4852 1.405,-3.5602 1.405,-4.6111 l 0,-1.9107 4.4374,-2.354 4.4374,-2.354 3.5965,1.715 3.5966,1.7151 7.2749,0 7.2749,0 1.9412,1.4682 1.9411,1.4682 8,0.064 8,0.064 1.9411,1.4682 1.9412,1.4682 13.1177,0 13.1177,0 1.9412,-1.4682 1.9411,-1.4682 9,-0.067 9,-0.067 2.5,-1.4291 2.5,-1.4291 10.5,-0.067 10.5,-0.067 1.9411,-1.4682 1.9412,-1.4682 5.5588,0.035 5.5589,0.035 2.5,1.4291 2.5,1.4291 43,0.071 43,0.071 2.5,1.4291 2.5,1.4291 33.2997,0.035 33.2996,0.035 2.9494,-1.5252 2.9493,-1.5252 53.751,0.3321 c 29.5631,0.1826 54.651,0.5315 55.751,0.7752 l 2,0.4431 0.5,-22.5 0.5,-22.5 0.7615,-1.1731 0.7614,-1.173 3.2386,-0.7047 c 1.7812,-0.3876 4.1261,-1.3223 5.211,-2.077 l 1.9725,-1.3722 43.1705,0 43.1705,0 0.607,-1.5818 0.607,-1.5818 0,-19.7127 0,-19.7127 4.8523,-3.7004 4.8523,-3.7005 95.3977,-0.255 95.3977,-0.2551 0.5,-34.9109 0.5,-34.911 4,-2.3297 4,-2.3297 13.1756,0.1748 13.1757,0.1748 1.4724,-1.222 1.4724,-1.2219 38.7069,0 38.7069,0 1.3844,1.149 1.3845,1.149 19.5212,0 19.5212,0 1.4735,-1.2229 1.4735,-1.2229 20.1359,0.1556 20.1359,0.1557 1.849,-1.6733 1.8489,-1.6733 19.6469,-0.042 19.6468,-0.042 0.9609,1.717 0.9608,1.717 16.9234,-0.1706 16.9233,-0.1707 1.4751,1.2242 1.475,1.2242 19.0151,0.029 19.0151,0.029 1.4649,-1.2157 1.4648,-1.2157 21.2462,0 21.2462,0 1.066,1.4579 1.0661,1.458 9.507,-0.4973 9.507,-0.4973 1.3482,1.6244 1.3482,1.6245 3.305,0 3.3049,0 2.114,2.6875 2.114,2.6875 -0.2914,6.5625 -0.2914,6.5625 -10.0999,0.2833 -10.0999,0.2834 -1.2725,-1.5334 -1.2726,-1.5333 -9.3775,0 -9.3776,0 0,-0.9286 c 0,-0.5107 -0.7071,-1.6357 -1.5714,-2.5 l -1.5715,-1.5714 -7.768,0 -7.7681,0 -1.139,2.5 -1.1391,2.5 -34.8609,0 -34.861,0 -1.139,-2.5 -1.1391,-2.5 -43.0429,0 -43.0429,0 -1.1391,2.5 -1.139,2.5 -48.861,0 -48.8609,0 -1.1391,-2.5 -1.139,-2.5 -3.179,0 -3.179,0 -1.1309,2.4822 -1.131,2.4821 -24.2795,0.2679 -24.2796,0.2678 -0.5,37 -0.5,37 -11.6532,0.2809 -11.6532,0.2809 -1.2192,1.4691 -1.2193,1.4691 -19.2551,0 -19.2551,0 -1.2658,-1.5252 -1.2659,-1.5253 -1.8928,1.7131 -1.8929,1.713 -3.3583,-1.2144 -3.3583,-1.2144 -2.5758,1.1736 -2.5759,1.1736 -1.5637,-1.2977 -1.5637,-1.2978 -2.5276,1.3528 -2.5276,1.3527 -1.9504,-1.218 -1.9504,-1.218 -2.3947,0.601 -2.3948,0.6011 -2.2182,-1.1872 -2.2181,-1.1871 -2.3952,1.2819 -2.3952,1.2819 -1.1798,-1.1798 -1.1798,-1.1798 -41.8657,0 -41.8658,0 -2.1842,1.1497 c -1.2014,0.6323 -2.5149,1.6448 -2.919,2.25 l -0.7347,1.1003 -0.015,20.1151 -0.015,20.1152 -2.0726,2.6348 -2.0726,2.6349 -8.1774,0.032 -8.1774,0.032 -1.9411,1.4682 -1.9412,1.4682 -5.1177,0 -5.1177,0 -1.9412,-1.4682 -1.9411,-1.4682 -28.5757,-0.032 -28.5757,-0.032 -2.1743,2.3145 -2.1743,2.3144 0,21.4856 0,21.4855 -1.2,1.2 -1.2,1.2 -2.6776,0 -2.6775,0 -1.2449,1.5 -1.2449,1.5 -7.6864,0 -7.6864,0 -1.9412,-1.4682 -1.9411,-1.4682 -39,0 -39,0 -1.9411,1.4682 -1.9412,1.4682 -57.0588,-0.032 -57.0589,-0.032 -1.9411,-1.4682 -1.9412,-1.4682 -46.5588,0.035 -46.5589,0.035 -2.5,1.4291 -2.5,1.4291 -9.6279,0.035 -9.6279,0.035 -3.59,1.5 -3.59,1.5 -21.5642,0 -21.5642,0 -3.59,-1.5 -3.59,-1.5 -6.1279,-0.032 -6.1279,-0.032 -1.9411,-1.4682 -1.9412,-1.4682 -5.2885,0 -5.2886,0 -2.0203,3.9602 -2.0203,3.9601 0,4.4959 0,4.4958 -3,5.088 -3,5.088 0,2.3793 0,2.3792 -2.4351,2.894 -2.435,2.8939 -0.6401,2.5503 -0.6401,2.5503 -2.9083,2.1502 -2.9084,2.1503 -1.5065,2.9133 c -0.8286,1.6024 -3.4236,4.9071 -5.7665,7.3438 -2.343,2.4368 -5.4408,5.9553 -6.8841,7.819 l -2.624,3.3884 -3.876,1.9687 c -2.1317,1.0828 -5.1039,2.9582 -6.6048,4.1676 -1.5008,1.2095 -5.6645,3.586 -9.2526,5.2813 -3.5881,1.6953 -7.1425,3.0824 -7.8987,3.0824 l -1.3749,0 -1.3578,1.636 c -0.7467,0.8998 -3.0429,2.6998 -5.1025,4 l -3.7449,2.364 -3.6518,0 -3.6518,0 -3.3164,2.0497 -3.3164,2.0496 -0.5566,1.7535 -0.5565,1.7534 -4.5218,2.1969 -4.5219,2.1969 -36.7233,-0.035 z m 9108.5938,-91.4674 -7.883,0 -1.396,-1.3934 -1.396,-1.3935 -27.321,0.1975 -27.321,0.1974 -2,-1.5222 -2,-1.5222 -11,-0.064 -11,-0.064 -1.941,-1.4682 -1.941,-1.4682 -11.118,0 -11.118,0 -1.941,-1.4682 -1.941,-1.4682 -20.128,-0.032 -20.127,-0.032 -1.245,1.5 -1.245,1.5 -11.127,0.032 -11.128,0.032 -1.941,1.4682 -1.941,1.4682 -9.187,0 -9.186,0 -1.245,1.5 -1.245,1.5 -28.186,0 -28.187,0 -1.941,-1.4682 -1.941,-1.4682 -15.05,-0.032 -15.05,-0.032 -1.247,-1.25 -1.247,-1.25 -18.703,-0.5 -18.703,-0.5 0,-9 0,-9 22.612,-0.2684 22.613,-0.2684 1.26,1.5184 1.26,1.5184 11.255,0 11.255,0 1.245,1.5 1.245,1.5 21.686,0 21.687,0 1.941,-1.4682 1.941,-1.4682 11.128,-0.032 11.127,-0.032 1.245,-1.5 1.245,-1.5 9.755,0 9.755,0 1.245,-1.5 1.245,-1.5 26.186,0 26.187,0 1.941,1.4682 1.941,1.4682 11.628,0.032 11.627,0.032 1.245,1.5 1.245,1.5 11.127,0.032 11.128,0.032 1.941,1.4682 1.941,1.4682 27.694,0 27.694,0 1.696,2.5881 1.696,2.5882 2.669,-0.6336 2.669,-0.6336 1.372,-1.9546 1.372,-1.9545 2.256,0 2.255,0 1.245,-1.5 1.245,-1.5 7.755,0 7.755,0 1.245,-1.5 1.245,-1.5 2.255,0 2.255,0 1.219,-1.4691 1.22,-1.4691 11.653,-0.2809 11.653,-0.2809 0.5,-49.5 0.5,-49.5 48.8,-0.2222 48.801,-0.2221 0.949,-0.5869 0.95,-0.5868 0,-34.7667 0,-34.7667 2.42,-2.2731 2.419,-2.2731 18.954,0.3265 18.953,0.3265 1.505,-1.2488 1.505,-1.2488 26.691,-0.044 26.691,-0.044 1.359,1.1272 1.358,1.1272 32.461,0.033 32.461,0.033 2.23,-1.1931 2.229,-1.1932 13.009,0.1381 13.01,0.1381 1.892,-1.7123 1.892,-1.7123 27.499,0.1289 27.499,0.129 2.204,1.5436 2.204,1.5437 6.578,0 6.577,0 1.156,1.1564 1.157,1.1564 20.618,-0.096 20.617,-0.096 1.246,-1.0336 1.245,-1.0336 26.431,-0.085 26.43,-0.085 3.415,1.437 3.415,1.4369 8.085,-0.4787 8.085,-0.4787 2.75,1.0749 2.75,1.0749 0,7.3247 0,7.3248 -1.2,1.2 -1.2,1.2 -10.807,0 -10.806,0 -2.174,-2.5 -2.174,-2.5 -16.247,0 -16.247,0 -1.966,2.5 -1.967,2.5 -31.491,0 -31.491,0 -1.638,-2.5 -1.638,-2.5 -7.786,0 -7.786,0 -1.941,-1.4682 -1.941,-1.4682 -21.059,-0.032 -21.059,-0.032 -1.941,1.4682 -1.941,1.4682 -17.089,0.032 -17.09,0.032 -1.139,2.5 -1.139,2.5 -33.543,0 -33.543,0 -1.139,-2.5 -1.139,-2.5 -18.767,0 -18.767,0 -1.949,2.4775 -1.948,2.4775 -18.874,0.2725 -18.874,0.2725 -0.5,35.1464 -0.5,35.1463 -1.896,2.094 -1.897,2.0941 -47.603,0.2596 -47.604,0.2596 -0.5,47.6599 -0.5,47.6598 -2.658,2.0902 -2.657,2.0901 -12.47,0 -12.47,0 -1.245,1.5 -1.245,1.5 -7.896,0 -7.897,0 -5.677,3.0296 -5.678,3.0296 -1.65,-0.2795 -1.65,-0.2796 -1.804,1.4971 -1.804,1.4972 -7.882,0 z M 1004,1370.6728 l -147.5,0.1728 -1.25,-0.5062 -1.25,-0.5061 0,-6.8963 0,-6.8964 3.96016,-2.0203 3.96016,-2.0203 142.86548,0 142.8656,0 2.223,2.3663 2.2231,2.3664 -0.2988,6.8836 -0.2987,6.8837 -147.5,0.1728 z m 12815.794,0.3272 -147.857,0 -0.513,-1.3384 c -0.283,-0.7361 -0.381,-4.8986 -0.219,-9.25 l 0.295,-7.9116 150,0 150,0 0.299,6.8837 0.298,6.8836 -2.223,2.3664 -2.223,2.3663 -147.857,0 z m -3934.3627,-16 -31.1864,0 -1.2449,-1.5 -1.2449,-1.5 -3.1864,0 -3.1864,0 -1.9412,-1.4682 -1.9411,-1.4682 -3.1276,-0.032 -3.1275,-0.032 -1.2449,-1.5 -1.2449,-1.5 -3.2551,0 -3.2551,0 -1.2449,-1.5 -1.2449,-1.5 -1.6661,0 c -0.9164,0 -3.423,-0.8957 -5.5702,-1.9904 l -3.9042,-1.9905 -1.8768,-2.9642 -1.8768,-2.9642 -2.1805,-0.6781 c -1.1993,-0.3729 -3.8291,-2.0808 -5.844,-3.7953 -2.0149,-1.7145 -5.7158,-4.8261 -8.2242,-6.9146 l -4.5607,-3.7974 -1.0782,-4.0041 -1.0782,-4.0042 -1.437,-0.5514 -1.4371,-0.5515 -4.0105,-8.0128 c -2.2058,-4.4071 -4.0106,-8.566 -4.0106,-9.2421 0,-0.6761 -0.9,-2.0437 -2,-3.0392 l -2,-1.81 0,-2.1539 0,-2.1538 -1.4682,-1.9412 -1.4682,-1.9411 -0.032,-26.6276 -0.032,-26.6275 1.5,-1.2449 1.5,-1.2449 0,-3.8208 0,-3.8209 1.8117,-1.3067 1.8116,-1.3067 2.2271,-4.6458 c 1.2249,-2.5552 3.3347,-5.8409 4.6884,-7.3015 l 2.4612,-2.6557 0,-1.9709 0,-1.9708 4.1213,-4.471 c 2.2667,-2.4591 5.5644,-5.363 7.3283,-6.4531 l 3.207,-1.9821 1.1839,-2.5983 c 0.6511,-1.4291 2.6379,-4.4777 4.4151,-6.7746 1.7772,-2.2969 4.9217,-6.0786 6.9878,-8.4039 l 3.7566,-4.2276 0,-1.4715 0,-1.4714 3.5,-2.6696 3.5,-2.6696 0,-1.1386 c 0,-0.6263 2.0202,-5.1854 4.4893,-10.1314 l 4.4893,-8.9926 0.011,-2.0589 0.011,-2.0588 1.4682,-1.9412 1.4682,-1.9411 0.032,-5.1276 0.032,-5.1275 1.5,-1.2449 1.5,-1.2449 -0.032,-20.6275 -0.032,-20.6276 -1.4682,-1.9411 -1.4682,-1.9412 0,-2.6864 0,-2.6864 -1.4026,-1.1641 -1.4026,-1.164 -0.4542,-4.2084 c -0.2499,-2.3146 -1.0312,-5.7834 -1.7364,-7.7084 -0.7052,-1.925 -2.8091,-6.7199 -4.6753,-10.6553 l -3.393,-7.1553 -1.3397,-0.5141 -1.3398,-0.5141 -2.137,-4.4146 -2.1371,-4.4146 -2.4911,-2.3403 -2.4912,-2.3403 0,-1.472 0,-1.472 -4.4764,-5.1037 c -2.4621,-2.807 -5.4996,-6.12681 -6.75,-7.37727 -1.2505,-1.25047 -4.5703,-4.28797 -7.3773,-6.75 L 9785.2926,986 l -1.5887,0 -1.5886,0 -4.7484,-5.5 -4.7484,-5.5 -1.2066,0 c -0.6637,0 -3.8403,-1.29505 -7.0593,-2.87788 -3.2189,-1.58283 -8.371,-4.05783 -11.4491,-5.5 L 9747.307,964 l -3.031,0 -3.0311,0 -1.2449,-1.5 -1.2449,-1.5 -3.2551,0 -3.2551,0 -1.2449,-1.5 -1.2449,-1.5 -5.1275,-0.0318 -5.1276,-0.0318 -1.9411,-1.46819 -1.9412,-1.4682 -12.1938,0 -12.1939,0 -1.638,-2.5 -1.6381,-2.5 -25.9044,0 -25.9043,0 -1.9291,2.45241 -1.9291,2.45242 -1.3125,-2.45242 -1.3125,-2.45241 -5.331,0 -5.331,0 -2.0066,-2.00657 -2.0065,-2.00658 0.2565,-72.24342 0.2566,-72.24343 200,0 200,0 0.252,274.43989 0.252,274.4398 -1.252,0.7949 -1.252,0.7948 -46.5,0.047 -46.5,0.047 -1.9411,1.4682 -1.9412,1.4682 -31.1864,0 z m 3047.3507,-100.0354 -43.282,-0.035 -2.5,-1.4291 -2.5,-1.4291 -6,-0.071 -6,-0.071 -2.5,-1.4291 -2.5,-1.4291 -10.5,-0.067 -10.5,-0.067 -1.941,-1.4682 -1.941,-1.4682 -10.274,0 -10.274,0 -1.035,-1.9343 -1.035,-1.9342 0,-6.5306 0,-6.5305 1.934,-1.0352 1.935,-1.0352 8.097,0 8.098,0 3.718,1.5856 3.718,1.5856 9.5,-0.1 9.5,-0.1 2.864,1.5142 2.865,1.5141 10.194,0 10.195,0 1.941,1.4682 1.941,1.4682 34,0 34,0 2.5,-1.4291 2.5,-1.4291 21.136,-0.035 21.135,-0.035 2.865,-1.4938 2.864,-1.4939 10.05,-0.01 10.05,-0.01 1.249,-1.25 1.249,-1.25 36.201,-0.3061 36.201,-0.3061 3.288,0.6086 3.288,0.6085 -0.288,8.6976 -0.288,8.6975 -34.5,0.5 -34.5,0.5 -2.184,1.25 -2.185,1.25 -6.374,0 -6.375,0 -1.941,1.4682 -1.941,1.4682 -22.628,0.032 -22.628,0.032 -3.59,1.5 -3.59,1.5 -43.282,-0.035 z M 4439.5519,1246 l -31.4613,0 -0.6179,-3.294 c -0.3399,-1.8117 -0.4728,-5.0371 -0.2953,-7.1675 l 0.3226,-3.8735 4,-2.3179 4,-2.3179 15.0176,0.1449 15.0176,0.145 2.2544,-1.2065 2.2545,-1.2066 37.0133,0.031 37.0133,0.031 2.0749,1.1104 2.075,1.1105 19.7993,-0.011 19.7994,-0.011 2.2503,-1.2044 2.2504,-1.2043 16.7539,0.1689 16.7538,0.1689 3.402,-1.8233 3.402,-1.8234 13.6252,0.2191 13.6251,0.219 3.1032,1.6048 3.1032,1.6047 16.7958,-0.1694 16.7958,-0.1693 2.39,1.279 2.3899,1.2791 19.7179,-0.095 19.7179,-0.095 2.0479,-1.096 2.0479,-1.096 38.8507,-0.2171 38.8506,-0.2171 1.6536,-1.3724 1.6536,-1.3725 0,-57.7226 0,-57.7225 1.8287,-1.655 1.8288,-1.655 1.6373,0 c 0.9005,0 3.2404,-0.7645 5.1997,-1.6988 l 3.5624,-1.6988 2.8759,1.6988 2.8758,1.6988 5.6454,0 5.6453,0 2.8346,1.4658 2.8346,1.4659 6.8658,-0.1321 6.8657,-0.132 2.783,1.5396 2.783,1.5397 4.2472,-0.4787 4.2471,-0.4787 3.842,1.6052 3.8419,1.6053 16.7636,0 16.7636,0 2.8643,-1.5214 2.8643,-1.5214 12.7222,0.167 12.7221,0.1669 1.6096,-1.3358 1.6096,-1.3359 16.3491,0.2517 16.3491,0.2518 3.0195,-1.5615 3.0195,-1.5614 132.2996,0.021 132.2997,0.021 7,2.4745 c 3.85,1.361 7.9,2.4793 9,2.4851 1.1,0.01 3.2889,0.6827 4.8643,1.5044 1.5754,0.8216 3.6004,1.4966 4.5,1.5 0.8996,0 2.9246,0.6783 4.5,1.5 l 2.8643,1.4938 8.6357,-0.035 8.6357,-0.035 2.5,-1.4291 2.5,-1.4291 7.2997,-0.035 7.2996,-0.035 2.8694,-1.4838 2.8694,-1.4838 4.9499,0.1115 4.9498,0.1115 8.2469,-4.1277 8.2469,-4.1277 1.8003,0 1.8004,0 4.2896,-4 4.2896,-4 2.6345,0 2.6345,0 5.4097,-2.9819 c 2.9754,-1.64 5.987,-2.99 6.6926,-3 0.7055,-0.01 5.4305,-2.0633 10.5,-4.5629 l 9.2172,-4.5448 1.372,-1.9552 c 0.7546,-1.0754 1.8796,-1.9545 2.5,-1.9536 0.6204,8e-4 5.403,-1.9673 10.628,-4.3736 5.225,-2.4063 11.3,-4.9223 13.5,-5.5911 2.2,-0.6688 8.95,-3.4972 15,-6.2853 6.05,-2.7881 11.7906,-5.7453 12.7569,-6.5717 0.9663,-0.8263 2.7663,-2.061 4,-2.7437 1.2337,-0.6828 5.1681,-2.6781 8.7431,-4.4341 3.575,-1.756 9.7688,-4.2723 13.764,-5.5919 3.9953,-1.3195 10.3965,-3.9767 14.2251,-5.9047 3.8285,-1.928 7.5101,-3.5055 8.1812,-3.5055 0.6712,0 2.3699,-1.0769 3.775,-2.393 1.4051,-1.3162 5.2055,-3.7912 8.4455,-5.5 3.2399,-1.7089 6.6149,-3.1213 7.5,-3.1388 0.885,-0.018 2.4827,-0.6925 3.5503,-1.5 l 1.9412,-1.4682 2.7498,0 2.7499,0 0.5479,-0.8866 0.548,-0.8867 3.7611,-0.7028 c 2.0685,-0.3866 4.3714,-1.2074 5.1174,-1.8241 l 1.3564,-1.1213 6.0366,0.1673 6.0366,0.1673 2.0795,-1.4565 2.0795,-1.4566 45.6551,0 45.655,0 1.2275,-1.479 1.2274,-1.479 1.6989,0.9092 1.6989,0.9092 1.4461,-0.9149 1.4461,-0.9149 16.0275,-0.015 16.0275,-0.015 2.0186,1.4139 2.0187,1.4139 2.9538,0.3361 2.9539,0.3361 0.3051,5.3312 0.305,5.3312 -1.0918,1.3155 -1.0918,1.3156 -1.9961,-0.522 -1.9962,-0.522 -1.8291,1.6554 -1.8292,1.6554 -59.5443,-0.044 -59.5442,-0.044 -2.9881,2.5142 -2.988,2.5143 -7.9145,0 -7.9145,0 -1.9412,1.4682 -1.9411,1.4682 -3.691,0.032 -3.691,0.032 -0.5645,0.9135 c -0.3105,0.5024 -2.5042,1.8524 -4.8748,3 -2.3706,1.1476 -4.788,2.0865 -5.372,2.0865 -0.584,0 -1.622,0.675 -2.3067,1.5 l -1.2449,1.5 -2.0016,0 -2.0016,0 -7.9917,4 -7.9918,4 -2.5378,0 -2.5378,0 -3.6928,4 -3.6928,4 -3.0946,0 -3.0946,0 -0.5645,0.9135 c -0.3105,0.5024 -2.5042,1.8524 -4.8748,3 -2.3706,1.1476 -4.7977,2.0865 -5.3937,2.0865 -0.5959,0 -7.0129,2.886 -14.2598,6.4134 -7.247,3.5274 -13.9653,7.1274 -14.9295,8 l -1.7532,1.5866 -2.4841,0 -2.4842,0 -2.8742,3 -2.8742,3 -3.2616,0 -3.2617,0 -13.2756,6.548 c -7.3016,3.6015 -13.9621,7.1503 -14.8012,7.8864 -0.8392,0.7361 -4.1765,2.7395 -7.4165,4.452 l -5.8907,3.1136 -1.8253,0 c -1.004,0 -3.5281,0.7244 -5.6093,1.6098 -2.0811,0.8854 -8.0589,3.5522 -13.2839,5.9262 -5.225,2.374 -11.0987,5.0036 -13.0528,5.8435 -1.954,0.8399 -4.3862,2.4482 -5.405,3.5738 l -1.8522,2.0467 -2.1539,0 -2.1538,0 -1.9412,1.4682 -1.9411,1.4682 -4.5,0.067 -4.5,0.067 -2.5,1.4291 -2.5,1.4291 -6.5,0.071 -6.5,0.071 -2.5,1.4291 -2.5,1.4291 -16.5589,0.035 -16.5588,0.035 -1.9412,-1.4682 -1.9411,-1.4682 -2.5,-0.067 -2.5,-0.067 -2.5,-1.4291 -2.5,-1.4291 -3,-0.067 -3,-0.067 -1.9411,-1.4682 -1.9412,-1.4682 -3.6345,0 -3.6346,0 -2.3486,-2.5 -2.3486,-2.5 -116.3712,0 -116.3711,0 -2.5,2.5 -2.5,2.5 -19.7634,0 -19.7634,0 -1.9412,1.4682 -1.9411,1.4682 -14.1279,0.032 -14.1279,0.032 -3.59,1.5 -3.59,1.5 -27.2821,-0.035 -27.2821,-0.035 -2.5,-1.4291 -2.5,-1.4291 -5.5,-0.042 -5.5,-0.042 -2.8643,-1.4939 -2.8643,-1.4938 -6.081,0 -6.081,0 -2.703,-2.5896 -2.7029,-2.5897 -2.0587,1.1018 -2.0587,1.1018 -0.5726,3.2379 c -0.3149,1.7808 -0.5604,5.0378 -0.5456,7.2378 0.015,2.2 0.018,6.8629 0.01,10.3619 l -0.019,6.3619 -1.5023,2.1381 -1.5024,2.1381 0.084,42.3547 0.084,42.3547 -1.7152,1.8953 -1.7153,1.8953 -22.7101,0 -22.7102,0 -2.5243,1.9856 -2.5243,1.9857 -1.233,-1.4857 -1.233,-1.4856 -1.8691,0 -1.8691,0 -1.249,2 -1.249,2 -46.5851,0 -46.5852,0 -2.3486,-2.5 -2.3486,-2.5 -36.749,0 -36.7489,0 -2.9711,2.5 -2.9711,2.5 -39.7117,0 -39.7118,0 -1.9665,-2.5 -1.9665,-2.5 -13.247,0 -13.2471,0 -2.1738,2.5 -2.1737,2.5 -31.4613,0 z m 1673.9806,-174 -7.2225,0 -1.7141,-1.8941 -1.7141,-1.894 0.3091,-4.856 0.3091,-4.8559 3,-0.3269 c 1.65,-0.1799 3.4275,-0.7424 3.95,-1.25 0.5225,-0.5077 1.6121,-0.9231 2.4213,-0.9231 0.8092,0 2.3014,-0.7513 3.3161,-1.6696 l 1.845,-1.6697 10.9755,0.2349 10.9756,0.2348 1.1687,-2.5652 1.1688,-2.5652 6.2171,0 6.217,0 1.2449,-1.5 1.2449,-1.5 5.2551,0 5.2551,0 1.2449,-1.5 1.2449,-1.5 3.1275,-0.032 3.1276,-0.032 1.9411,-1.4682 1.9412,-1.4682 4.6864,0 4.6864,0 1.2449,-1.5 1.2449,-1.5 6.4272,0 6.4272,0 2.8797,-1.4891 2.8797,-1.4892 2.8766,0.5754 2.8767,0.5753 1.3165,-1.5862 1.3164,-1.5862 3.2551,0 3.2551,0 1.2449,-1.5 1.2449,-1.5 4.21,0 4.21,0 2.4221,-3.75 2.4221,-3.75 2.1728,-0.31 2.1729,-0.3101 1.195,-1.4399 1.1951,-1.44 3.1887,0 3.1887,0 10.9229,-5.5 10.923,-5.5 2.1435,0 2.1434,0 1.2449,-1.5 1.2449,-1.5 12.6864,0 12.6864,0 1.9412,1.4682 1.9411,1.4682 24.6276,0.032 24.6275,0.032 1.2449,-1.5 1.2449,-1.5 18.9733,0 18.9732,0 3.1543,1.75 c 1.7349,0.9625 3.4849,2.2 3.889,2.75 0.4041,0.55 0.7416,2.6507 0.75,4.6682 0.01,2.0175 -0.2578,4.38 -0.5917,5.25 l -0.607,1.5818 -6.7705,0 -6.7706,0 -1.2449,1.5 -1.2449,1.5 -25.2086,0 -25.2085,0 -1.338,2.5 -1.338,2.5 -8.216,0 -8.216,0 -1.638,-2.5 -1.6381,-2.5 -16.4202,0 -16.4203,0 -1.4317,2.0441 -1.4318,2.0441 -3.8364,1.9559 c -2.11,1.0757 -4.5861,1.9559 -5.5025,1.9559 l -1.6661,0 -1.2449,1.5 -1.2449,1.5 -3.2551,0 -3.2551,0 -1.2449,1.5 -1.2449,1.5 -1.7551,0 -1.7551,0 -1.2449,1.5 -1.2449,1.5 -2.3008,0 -2.3008,0 -2.9711,2.5 -2.9711,2.5 -2.3557,0.032 -2.3556,0.032 -1.9411,1.4682 -1.9412,1.4682 -5.3303,0 -5.3303,0 -1.1391,2.5 -1.139,2.5 -4.7171,0 -4.717,0 -1.2449,1.5 -1.2449,1.5 -5.2551,0 -5.2551,0 -1.2449,1.5 -1.2449,1.5 -4.7551,0 -4.7551,0 -1.2449,1.5 -1.2449,1.5 -5.2551,0 -5.2551,0 -1.2477,1.5033 -1.2476,1.5034 -4.3672,-0.1652 -4.3672,-0.1652 -1.8914,1.7117 -1.8915,1.7117 -4.9095,-0.6513 -4.9096,-0.6512 -1.329,1.6014 -1.3291,1.6014 -12.7551,0 -12.7551,0 -1.2449,1.5 -1.2449,1.5 -7.2226,0 z m 4620.6355,-52.719 -79.332,0.219 -4.1,-1.6034 -4.101,-1.6034 -6.711,0.4801 -6.71,0.4801 -3.26,-1.6267 -3.261,-1.6267 -3.097,-0.035 -3.096,-0.036 -2.5,-1.4291 -2.5,-1.4291 -3.169,-0.036 -3.169,-0.035 -2.831,-1.389 c -1.557,-0.764 -4.406,-1.9372 -6.331,-2.6072 -1.925,-0.67 -5.3,-1.5569 -7.5,-1.9708 -2.2,-0.4139 -5.131,-1.3782 -6.513,-2.1428 -1.383,-0.7646 -3.408,-2.2061 -4.5,-3.20328 -1.093,-0.9972 -3.736,-3.1347 -5.875,-4.75 -2.138,-1.61531 -4.3,-2.93692 -4.804,-2.93692 -0.505,0 -2.905,-0.90534 -5.334,-2.01186 l -4.416,-2.01185 -1.09,-2.03601 -1.09,-2.03602 -2.387,-0.90749 -2.386,-0.9075 -1.735,-2.79464 c -0.954,-1.53704 -2.89,-4.0723 -4.302,-5.63391 -1.412,-1.5616 -3.801,-3.48337 -5.308,-4.2706 l -2.74,-1.43133 -1.919,-3.7294 -1.918,-3.72939 -3.091,-2.93709 c -1.701,-1.6154 -3.092,-3.4553 -3.092,-4.08865 0,-0.63336 -2.223,-5.69699 -4.94,-11.2525 l -4.939,-10.10094 -2.061,-2.06041 L 10516,928 l -0.03,-3.25 -0.03,-3.25 -1.468,-1.94113 -1.468,-1.94113 0,-2.11774 0,-2.11774 -1.468,-1.94113 -1.468,-1.94113 -0.07,-5 -0.07,-5 -2.96,-3.46223 -2.959,-3.46222 -0.01,-6.03778 -0.02,-6.03777 -0.891,-1.40791 -0.891,-1.40791 1.079,-2.36858 1.079,-2.36857 -1.672,-3.50744 -1.673,-3.50744 0,-18.89798 0,-18.89798 3,-2.13619 3,-2.13619 0.03,-4.6819 0.04,-4.68191 1.429,-2.5 1.429,-2.5 0.04,-7.14738 0.03,-7.14737 3,-6.04654 3,-6.04654 0,-2.81554 0,-2.81554 1.91,-1.19286 1.91,-1.19285 0.689,-3.29769 0.688,-3.29769 3.324,-6 3.325,-6 3.577,-3.44617 3.577,-3.44616 0,-1.31804 0,-1.31804 8,-8.03232 8,-8.03232 0,-1.47582 0,-1.47582 4.084,-4.43017 c 2.246,-2.43659 4.87,-5.91404 5.832,-7.72766 0.961,-1.81361 2.611,-4.81678 3.666,-6.6737 1.055,-1.85692 2.931,-4.42397 4.168,-5.70454 l 2.25,-2.32833 0,-12.32237 0,-12.32236 -3.886,-5.17162 c -2.137,-2.84438 -4.839,-7.14009 -6.003,-9.54602 l -2.118,-4.37441 -9.913,-9.67707 c -5.452,-5.32238 -10.373,-9.67706 -10.935,-9.67706 -0.562,0 -2.5,-1.35 -4.306,-3 -1.807,-1.65 -3.688,-3 -4.18,-3 -0.492,0 -2.433,-1.35 -4.312,-3 l -3.417,-3 -3.842,0 -3.843,0 -1.245,-1.5 -1.245,-1.5 -3.255,0 -3.255,0 -1.245,-1.5 -1.245,-1.5 -96.686,0 -96.687,0 -1.941,1.4682 -1.941,1.46819 -9.628,0.0318 -9.627,0.0318 -1.245,1.5 -1.245,1.5 -9.755,0 -9.755,0 -1.245,1.5 -1.245,1.5 -11.255,0 -11.255,0 -1.245,1.5 -1.245,1.5 -13.127,-0.0354 -13.128,-0.0354 -2.5,-1.42913 -2.5,-1.42913 -28.628,-0.0354 -28.627,-0.0354 -1.245,-1.5 -1.245,-1.5 -14.255,0 -14.255,0 -1.245,-1.5 -1.245,-1.5 -12.755,0 -12.755,0 -1.245,-1.5 -1.245,-1.5 -86.755,0 -86.7551,0 -1.2449,1.5 -1.2449,1.5 -11.2551,0 -11.2551,0 -1.2449,1.5 -1.2449,1.5 -11.2551,0 -11.2551,0 -1.2449,1.5 -1.2449,1.5 -14.2551,0 -14.2551,0 -1.2449,1.5 -1.2449,1.5 -16.6275,-0.006 -16.6276,-0.006 -2.6025,-1.35799 -2.6024,-1.35799 -2.3976,1.32872 -2.3975,1.32871 -3.0589,0.0354 -3.0588,0.0354 -1.9412,-1.4682 -1.9411,-1.46819 -12.6276,-0.0318 L 9751.2449,629 9750,627.5 9748.7551,626 9734,626 l -14.7551,0 -1.2449,-1.5 -1.2449,-1.5 -11.2551,0 -11.2551,0 -1.2449,-1.5 -1.2449,-1.5 -87.7551,0 -87.7551,0 -1.2449,1.5 -1.2449,1.5 -6.6275,0.0318 -6.6276,0.0318 -1.9411,1.46819 -1.9412,1.4682 -5.5588,0.0318 -5.5589,0.0318 -1.9411,1.46819 -1.9412,1.4682 -3.2573,0 -3.2574,0 -2.6305,2.4379 -2.6305,2.4379 -3.171,0.68987 c -1.7441,0.37943 -4.0586,1.30738 -5.1435,2.0621 -1.0849,0.75473 -2.7026,1.37223 -3.595,1.37223 l -1.6225,0 -1.5985,1.76625 c -0.8791,0.97143 -4.4363,3.20768 -7.9049,4.96944 -3.4686,1.76175 -9.6816,4.62012 -13.8066,6.35193 -4.125,1.73182 -9.653,3.93165 -12.2844,4.88853 l -4.7843,1.73978 -2.2157,2.03649 -2.2156,2.03648 -4.1907,0.68343 -4.1907,0.68343 -2.6102,3.42212 -2.6102,3.42212 -2.8116,0 -2.8116,0 -3.775,3 -3.775,3 -2.8364,0 -2.8365,0 -7.9328,4 c -4.363,2.2 -8.3629,4 -8.8885,4 -0.5257,0 -2.6269,1.32801 -4.6693,2.95114 l -3.7135,2.95114 -8.365,4.04886 c -4.6007,2.22687 -8.8599,4.04886 -9.4649,4.04886 -0.605,0 -3.8005,1.40544 -7.1011,3.12319 l -6.001,3.1232 -5.208,-0.50492 -5.208,-0.50492 -4.7284,1.85863 -4.7284,1.85862 -1.341,-0.51458 -1.341,-0.51458 -5.2203,2.4186 c -2.8711,1.33024 -5.9899,3.0785 -6.9306,3.88504 -0.9407,0.80653 -4.3777,2.88512 -7.6379,4.61907 l -5.9276,3.15265 -78.7406,0 -78.7406,0 -1.5818,-0.60699 -1.5818,-0.60699 0,-8.39301 c 0,-4.61615 0.1125,-8.4969 0.25,-8.62388 0.1375,-0.12699 33.55,-0.48627 74.25,-0.79841 l 74,-0.56754 5.5,-1.55777 c 3.025,-0.85678 8.7513,-3.19749 12.725,-5.20159 l 7.2251,-3.64382 5.8506,0 5.8507,0 2.3486,-2.5 2.3486,-2.5 5.9437,0 5.9437,0 3.4168,-3 3.4168,-3 1.943,0 c 1.0687,0 4.3156,-1.07337 7.2152,-2.38526 2.8997,-1.31189 8.616,-3.89939 12.7028,-5.75 l 7.4306,-3.36474 2.0694,-2.02807 c 1.1382,-1.11544 3.7124,-2.80294 5.7205,-3.75 2.0082,-0.94706 4.0778,-1.72193 4.5993,-1.72193 0.5215,0 4.0535,-1.62822 7.8489,-3.61828 3.7954,-1.99005 7.3282,-4.01505 7.8507,-4.5 l 0.95,-0.8817 3.7233,0 3.7232,0 2.8268,-2.31033 2.8267,-2.31032 4.0168,-1.15996 4.0169,-1.15996 1.7897,-3.02971 1.7897,-3.02972 3.7563,0 3.7564,0 2.8742,-3 2.8742,-3 2.547,0 2.5471,0 5.0159,-2.4507 c 2.7587,-1.34789 10.1908,-4.79301 16.5158,-7.65583 l 11.5,-5.20512 2.0645,-1.84418 c 1.1354,-1.01429 2.5428,-1.84417 3.1275,-1.84417 0.5847,0 1.6233,-0.675 2.308,-1.5 l 1.2449,-1.5 3.2551,0 3.2551,0 1.2449,-1.5 1.2449,-1.5 8.1275,-0.0318 8.1276,-0.0318 1.9411,-1.46819 1.9412,-1.4682 3.6945,0 3.6946,0 2.8643,-1.49384 2.8643,-1.49384 94.5589,-0.006 94.5588,-0.006 1.9412,1.4682 1.9411,1.46819 10.5589,0.0318 10.5588,0.0318 1.9412,1.4682 1.9411,1.46819 15.6276,0.0318 15.6275,0.0318 1.2449,1.5 1.2449,1.5 12.7551,0 12.7551,0 1.2449,1.5 1.2449,1.5 14.2551,0 14.2551,0 1.2449,-1.5 1.2449,-1.5 17.7551,0 17.7551,0 1.2449,-1.5 1.2449,-1.5 9.7551,0 9.7551,0 1.2449,-1.5 1.2449,-1.5 12.7551,0 12.7551,0 1.2449,-1.5 1.2449,-1.5 94.2551,0 94.255,0 1.245,1.5 1.245,1.5 12.755,0 12.755,0 1.245,1.5 1.245,1.5 17.755,0 17.755,0 1.245,1.5 1.245,1.5 23.755,0 23.755,0 1.245,1.5 1.245,1.5 6.255,0 6.255,0 1.245,-1.5 1.245,-1.5 13.255,0 13.255,0 1.245,-1.5 1.245,-1.5 9.686,0 9.687,0 1.941,-1.4682 1.941,-1.46819 8.5,-0.0636 8.5,-0.0636 1.941,-1.46819 1.941,-1.4682 99.618,0 99.618,0 1.941,1.4682 1.941,1.46819 6,0.0672 6,0.0672 2.5,1.42913 2.5,1.42913 2.628,0.0354 2.627,0.0354 1.245,1.5 1.245,1.5 1.755,0 1.755,0 1.245,1.5 c 0.685,0.825 1.81,1.5 2.5,1.5 0.69,0 1.866,0.73648 2.613,1.63663 0.747,0.90014 3.165,2.48219 5.373,3.51565 2.208,1.03346 5.589,2.96754 7.514,4.29797 1.925,1.33042 4.2,3.01088 5.056,3.73435 0.856,0.72347 3.781,3.25605 6.5,5.62796 2.719,2.37191 5.525,4.76916 6.234,5.32721 l 1.291,1.01464 0.582,2.90859 0.581,2.90859 2.197,2.26421 2.197,2.2642 3.681,7.32964 3.681,7.32963 0.03,2.67037 0.04,2.67036 1.429,2.5 1.429,2.5 0.04,7.09501 0.03,7.09501 2,1.80998 2,1.80998 0,4.10446 0,4.10447 -2,1.24902 -2,1.24902 0,1.86441 c 0,1.02542 -0.933,4.05911 -2.073,6.74152 -1.141,2.68242 -3.376,7.60257 -4.968,10.93368 -1.591,3.33111 -3.997,7.34021 -5.345,8.90911 l -2.451,2.85256 -0.626,3.33839 -0.627,3.3384 -2.705,1.40835 c -1.488,0.77459 -3.887,2.46321 -5.333,3.75249 -1.445,1.28928 -3.178,3.41301 -3.852,4.71941 -0.673,1.3064 -2.8,4.4564 -4.726,7 -1.925,2.5436 -4.917,6.40667 -6.647,8.5846 -1.731,2.17793 -5.271,6.00293 -7.867,8.5 l -4.72,4.54013 -1.567,4.47942 c -0.861,2.46368 -2.45,5.9769 -3.53,7.80716 l -1.963,3.32774 0,2.25171 0,2.25171 -1.468,1.94113 -1.468,1.94113 -0.04,3 -0.04,3 -1.494,2.86431 -1.494,2.8643 0,4.43536 0,4.43535 -1.548,2.9944 -1.549,2.99439 0.491,15.70595 c 0.27,8.63826 0.53,16.83094 0.577,18.20594 0.05,1.375 -0.194,4.58954 -0.535,7.14343 l -0.62,4.64343 1.299,2.35657 1.299,2.35657 0.664,5.5 c 0.365,3.025 1.221,7.075 1.904,9 0.682,1.925 1.865,4.77397 2.629,6.33104 l 1.389,2.83104 0,2.96491 0,2.96491 4.417,8.70405 c 2.429,4.78723 5.183,10.58457 6.12,12.88298 l 1.703,4.17893 3.886,3.12326 3.887,3.12325 1.98,3.69782 c 1.089,2.03379 3.909,6.15305 6.267,9.1539 l 4.287,5.45608 6.899,5.29392 c 3.795,2.91165 7.412,5.29391 8.04,5.29391 0.627,0 2.433,1.35 4.014,3 1.581,1.65 3.293,3 3.805,3 0.512,0 2.498,1.37619 4.414,3.05821 l 3.483,3.0582 7.149,3.32401 c 3.932,1.82821 8.724,3.88772 10.649,4.57669 1.925,0.68897 5.3,1.47307 7.5,1.74243 l 4,0.48976 1.973,1.37535 1.972,1.37535 2.655,0 2.655,0 1.245,1.5 1.245,1.5 7.984,0 7.983,0 1.967,2.50002 1.966,2.5 81.321,0 81.32,0 0.607,1.5818 c 0.334,0.87 0.607,4.2871 0.607,7.5936 l 0,6.0118 -1.75,0.4375 c -0.962,0.2405 -37.449,0.5359 -81.082,0.6563 z m -3.149,-68.99715 -82.482,0.21615 -3.265,-1.75 -3.265,-1.75 -3.444,0 -3.445,0 -0.548,-0.88664 c -0.301,-0.48765 -2.113,-1.18023 -4.026,-1.53906 l -3.477,-0.65243 -4.284,-2.44889 c -2.356,-1.34689 -4.99,-2.45431 -5.855,-2.46093 l -1.572,-0.0121 -3.928,-2.97218 c -2.16,-1.6347 -4.468,-2.9847 -5.127,-3 l -1.199,-0.0278 -2.704,-3.75 c -1.487,-2.0625 -5.447,-6.49237 -8.801,-9.84416 -3.353,-3.35179 -7.334,-7.81176 -8.847,-9.91103 -1.513,-2.09928 -2.75,-4.41537 -2.75,-5.14686 0,-0.7315 -1.806,-4.77878 -4.013,-8.99395 l -4.013,-7.66396 -0.623,-4.09502 c -0.343,-2.25226 -1.051,-4.63699 -1.572,-5.2994 l -0.948,-1.20438 0.04,-24.31454 0.04,-24.31455 1.416,-3.48108 1.415,-3.48107 -0.399,-1.08786 -0.4,-1.08787 3.136,-8.21213 3.136,-8.21213 2.253,-2.7 c 1.239,-1.48501 2.999,-4.15489 3.91,-5.93308 l 1.658,-3.23308 2.974,-1.53773 2.973,-1.53774 1.692,-2.72919 c 0.93,-1.50105 2.684,-3.85419 3.897,-5.22919 1.213,-1.375 2.505,-3.49259 2.871,-4.70576 l 0.666,-2.20575 7.134,-6.60516 7.134,-6.60516 1.708,-3.81571 c 0.94,-2.09865 2.216,-4.12902 2.835,-4.51194 0.62,-0.38292 2.408,-3.25093 3.974,-6.37337 1.566,-3.12243 3.162,-6.80215 3.546,-8.17715 0.385,-1.375 1.288,-3.85 2.008,-5.5 0.72,-1.65 1.869,-4.575 2.554,-6.5 0.685,-1.925 1.55,-5.75 1.923,-8.5 0.372,-2.75 1.217,-5.98292 1.877,-7.18426 l 1.2,-2.18426 0,-18.45143 0,-18.45144 -1.494,-2.8643 -1.494,-2.86431 0,-3.12756 0,-3.12755 -1.5,-1.24489 -1.5,-1.24489 0,-2.68643 0,-2.68642 -1.468,-1.94113 -1.468,-1.94113 -0.03,-3.1403 -0.03,-3.14031 -3.538,-6.85969 c -1.945,-3.77284 -4.633,-8.4347 -5.972,-10.3597 -1.339,-1.925 -3.346,-4.41443 -4.459,-5.53206 -1.113,-1.11763 -2.9,-3.74912 -3.97,-5.84775 l -1.945,-3.81569 -10.997,-11.40225 -10.996,-11.40225 -1.605,0 -1.604,0 -4.707,-4.30091 -4.707,-4.30091 -4.5,-1.81383 c -2.475,-0.9976 -6.182,-2.54969 -8.239,-3.44909 -2.056,-0.89939 -3.743,-1.96711 -3.75,-2.37272 0,-0.4056 -1.698,-1.80123 -3.761,-3.10139 l -3.75,-2.36395 -4.727,-0.70638 -4.726,-0.70638 -0.583,-0.94222 -0.582,-0.94222 -2.75,0 -2.75,0 -1.941,-1.4682 -1.941,-1.46819 -3.5,-0.0672 -3.5,-0.0672 -2.5,-1.42913 -2.5,-1.42913 -13.128,-0.0354 -13.127,-0.0354 -1.245,-1.5 -1.245,-1.5 -3.255,0 -3.255,0 -1.245,1.5 -1.245,1.5 -15.155,0 -15.155,0 -2.102,-1.47258 -2.103,-1.47258 -14.87,-0.27742 -14.87,-0.27742 -0.257,-73.44346 -0.256,-73.44346 0.829,-0.82865 0.828,-0.82866 198.761,0.0144 198.761,0.0144 0.917,0.56676 0.917,0.56675 0,273.03461 0,273.0346 -1.75,0.44023 c -0.962,0.24212 -38.867,0.53749 -84.231,0.65638 z M 6144,858 l -4.679,0 -1.1622,-2.55087 -1.1623,-2.55087 -30.6473,0.16029 -30.6472,0.16029 -0.9485,-1.69483 -0.9485,-1.69482 -13.0123,0.29544 -13.0124,0.29544 -1.1401,-1.51129 -1.1402,-1.51129 -10.7941,0.41631 -10.7942,0.41631 -2.0036,-1.81332 -2.0037,-1.81331 -4.2022,0.21776 -4.2022,0.21776 -1.2993,-0.85902 -1.2994,-0.85901 0.2994,-6.91049 0.2993,-6.91048 2.6768,-0.30936 2.6768,-0.30936 1.1957,-1.44064 1.1956,-1.44064 6.2551,0 6.2551,0 1.2449,1.5 1.2449,1.5 11.2551,0 11.2551,0 1.2449,1.5 1.2449,1.5 20.899,0 20.899,0 1.1391,2.5 1.139,2.5 37.3165,0 37.3164,0 1.6381,-2.5 1.638,-2.5 23.7626,0 23.7625,0 1.2449,-1.5 1.2449,-1.5 27.2551,0 27.2551,0 1.2449,-1.5 1.2449,-1.5 1.7551,0 1.7551,0 1.2055,1.45258 1.2056,1.45257 5.6669,0.29743 5.6669,0.29742 0.2928,7.19993 0.2928,7.19993 -4.0006,1.07725 -4.0006,1.07724 -0.6367,1.03033 -0.6368,1.03033 -19.4591,-0.20382 -19.4592,-0.20382 -1.1463,1.14631 L 6253.6,850 l -27.4713,0 -27.4712,0 -1.7766,1.60776 -1.7765,1.60777 -22.0509,-0.15771 -22.0509,-0.1577 -1.1618,2.54994 L 6148.679,858 6144,858 z m 1467.55,-235.0318 -83.05,-0.0318 -1.9411,-1.46819 -1.9412,-1.4682 -4.2898,0 -4.2898,0 -0.5813,-2.31627 c -0.3198,-1.27395 -0.4409,-4.49885 -0.2691,-7.16645 l 0.3123,-4.85017 4,-2.29019 4,-2.29018 89.1276,-0.0434 89.1275,-0.0434 1.1951,1.43997 1.195,1.43996 2.1774,0.31004 2.1774,0.31003 0,7.5 0,7.5 -5.7086,0.50855 -5.7085,0.50855 -1.2415,1.24145 L 7694.6,623 7611.55,622.9682 z M 9710.5,228 l -24.1177,0 -1.9412,-1.4682 -1.9411,-1.46819 -8.1276,-0.0318 -8.1275,-0.0318 -1.2449,-1.5 -1.2449,-1.5 -9.7551,0 -9.7551,0 -1.2387,-1.49258 -1.2388,-1.49259 -63.1337,-0.25741 L 9515.5,218.5 l 0,-9 0,-9 66.1217,-0.2571 66.1216,-0.25709 1.2508,1.50709 1.2508,1.5071 10.7226,0 10.7225,0 1.81,2 1.81,2 7.095,0.0354 7.095,0.0354 2.5,1.42913 2.5,1.42913 17.5589,0.0354 17.5588,0.0354 1.9412,-1.4682 1.9411,-1.46819 9.2415,-0.0318 9.2416,-0.0318 1.249,-2 1.249,-2 11.137,0 11.137,0 1.2449,-1.5 1.2449,-1.5 34.7551,0 34.7551,0 1.2449,1.5 1.2449,1.5 14.137,0 14.137,0 1.249,2 1.249,2 9.8691,0 9.8691,0 1.2449,1.5 1.2449,1.5 26.7551,0 26.7551,0 1.2449,-1.5 1.2449,-1.5 8.3691,0 8.3691,0 1.249,-2 1.249,-2 11.137,0 11.1369,0 1.245,-1.5 1.245,-1.5 22.255,0 22.255,0 1.245,1.5 1.245,1.5 11.137,0 11.137,0 1.249,2 1.249,2 9.869,0 9.869,0 1.245,1.5 1.245,1.5 19.186,0 19.187,0 1.941,-1.4682 1.941,-1.46819 5.742,-0.0318 5.741,-0.0318 1.249,-2 1.249,-2 8.137,0 8.137,0 1.245,-1.5 1.245,-1.5 37.755,0 37.755,0 1.245,1.5 1.245,1.5 11.137,0 11.137,0 1.249,2 1.249,2 9.241,0.0318 9.242,0.0318 1.941,1.46819 1.941,1.4682 27.559,-0.0318 27.559,-0.0318 1.941,-1.46819 1.941,-1.4682 10.301,0 10.3,0 1.249,-2 1.249,-2 9.637,0 9.637,0 1.245,-1.5 1.245,-1.5 21.627,0.0354 21.628,0.0354 2.5,1.42913 2.5,1.42913 12.215,0.0354 12.215,0.0354 1.07,2 1.07,2 6.774,0 6.774,0 1.941,1.4682 1.941,1.46819 19.559,0.0318 19.559,0.0318 1.941,-1.4682 1.941,-1.46819 9.242,-0.0318 9.241,-0.0318 1.249,-2 1.249,-2 11.137,0 11.137,0 1.245,-1.5 1.245,-1.5 33.255,0 33.255,0 1.245,1.5 1.245,1.5 9.842,0 9.843,0 1.07,2 1.07,2 4.997,0 4.997,0 3.59,1.5 3.59,1.5 31.756,0 31.756,0 3.59,-1.5 3.59,-1.5 6.497,0 6.497,0 1.07,-2 1.07,-2 11.343,0 11.342,0 1.252,-1.50813 1.251,-1.50814 57.121,0.25814 57.121,0.25813 0.293,8.41435 0.293,8.41434 -1.293,0.82034 -1.293,0.82034 -50.636,0.0153 -50.635,0.0153 -2.865,1.49384 -2.864,1.49384 -12,0.0416 -12,0.0416 -2.5,1.42913 -2.5,1.42913 -6.5,0.0672 -6.5,0.0672 -1.941,1.46819 -1.941,1.4682 -34.618,0 -34.618,0 -1.941,-1.4682 -1.941,-1.46819 -9,-0.0672 -9,-0.0672 -2.5,-1.42913 -2.5,-1.42913 -10,-0.0709 -10,-0.0709 -2.5,-1.42913 -2.5,-1.42913 -23.5,-0.004 -23.5,-0.004 -1.941,1.46819 -1.941,1.4682 -12.618,0 -12.618,0 -1.941,1.4682 -1.941,1.46819 -6.636,0.0318 -6.635,0.0318 -2.865,1.49384 -2.864,1.49384 -27.059,0.006 -27.059,0.006 -1.941,-1.4682 -1.941,-1.46819 -8.128,-0.0318 -8.127,-0.0318 -1.245,-1.5 -1.245,-1.5 -12.755,0 -12.755,0 -1.245,-1.5 -1.245,-1.5 -12.755,0 -12.755,0 -1.245,1.5 -1.245,1.5 -9.755,0 -9.755,0 -1.245,1.5 -1.245,1.5 -11.255,0 -11.255,0 -1.245,1.5 -1.245,1.5 -34.755,0 -34.755,0 -1.245,-1.5 -1.245,-1.5 -11.255,0 -11.255,0 -1.245,-1.5 -1.245,-1.5 -9.755,0 -9.755,0 -1.245,-1.5 -1.245,-1.5 -29.627,0.0318 -29.628,0.0318 -1.941,1.46819 -1.941,1.4682 -9.059,0.0318 -9.059,0.0318 -1.941,1.46819 -1.941,1.4682 -9.187,0 -9.186,0 -1.245,1.5 -1.245,1.5 -25.186,0 -25.187,0 -1.941,-1.4682 -1.941,-1.46819 -7.628,-0.0318 -7.627,-0.0318 -1.245,-1.5 -1.245,-1.5 -9.755,0 -9.755,0 -1.245,-1.5 -1.245,-1.5 -16.255,0 -16.255,0 -1.245,1.5 -1.245,1.5 -11.255,0 -11.2551,0 -1.2449,1.5 -1.2449,1.5 -6.2551,0 -6.2551,0 -1.2449,1.5 -1.2449,1.5 -35.6864,0 -35.6864,0 -1.9412,-1.4682 -1.9411,-1.46819 -9.6276,-0.0318 -9.6275,-0.0318 -1.2449,-1.5 -1.2449,-1.5 -12.6864,0 -12.6864,0 -1.9412,-1.4682 -1.9411,-1.46819 -28.1276,-0.0318 -28.1275,-0.0318 -1.2449,1.5 -1.2449,1.5 -9.7551,0 -9.7551,0 -1.2449,1.5 -1.2449,1.5 -11.1275,0.0318 -11.1276,0.0318 -1.9411,1.46819 -1.9412,1.4682 -24.1177,0 z"
     id="path3019"
     style="fill:#000000" />
</svg>
